<?xml version="1.0" encoding="utf-8"?>
<!DOCTYPE svg PUBLIC "-//W3C//DTD SVG 1.1//EN" "http://www.w3.org/Graphics/SVG/1.1/DTD/svg11.dtd">
<svg version="1.1" xmlns="http://www.w3.org/2000/svg" xmlns:xlink="http://www.w3.org/1999/xlink" x="0px" y="0px" viewBox="0 0 45 55" enable-background="new 0 0 45 55" xml:space="preserve">
    <defs>
        <style type='text/css'><![CDATA[
            circle, path { fill: inherit; }
            ]]></style>
        <symbol id='pig-duotone' viewBox='0 0 45 55'>
            <circle display="none" opacity="0.25" cx="15.53" cy="33.01" r="1.21"/>
            <circle display="none" opacity="0.25" cx="29.4" cy="33.01" r="1.21"/>
            <path d="M12.64,31.64c-0.05-0.3-0.09-0.6-0.09-0.91c0-0.02,0-0.05,0-0.07c-0.66,1.38-1.76,2.95-3.34,2.95c-2.81,0-3.19,0-3.19,0s0.73-4.99,3.54-4.99c1.9,0,2.93,0,3.41,0c0.2-0.48,0.47-0.94,0.79-1.37c-0.92,0-2.29,0-4.26,0c-4.35,0-5.48,7.73-5.48,7.73s0.59,0,4.94,0c0.79,0,1.51-0.26,2.14-0.68C11.43,33.35,11.95,32.45,12.64,31.64z"/>
            <path opacity="0.5" d="M35.36,28.63c-1.9,0-2.93,0-3.41,0c0.27,0.65,0.41,1.33,0.42,2.04c0.08,0.16,0.16,0.33,0.25,0.49c0.03,0.05,0.06,0.1,0.09,0.15c0.07,0.12,0.13,0.23,0.21,0.35c0.04,0.06,0.08,0.12,0.12,0.18c0.07,0.1,0.14,0.2,0.21,0.3c0.05,0.06,0.09,0.12,0.14,0.18c0.07,0.09,0.15,0.18,0.23,0.26c0.05,0.06,0.11,0.11,0.16,0.17c0.08,0.08,0.16,0.15,0.25,0.22c0.06,0.05,0.12,0.1,0.18,0.14c0.09,0.06,0.18,0.12,0.28,0.18c0.06,0.04,0.12,0.07,0.19,0.1c0.11,0.05,0.22,0.09,0.33,0.12c0.06,0.02,0.11,0.04,0.17,0.06c0.17,0.04,0.35,0.07,0.54,0.07c2.81,0,3.19,0,3.19,0S38.17,28.63,35.36,28.63z"/>
            <path opacity="0.5" d="M33.58,38.95c-1.51,3.49-5.91,6.02-11.11,6.02v-1.1c-4.11,0-7.32-2.21-7.32-5.03s3.22-5.03,7.32-5.03v-2.03v-8.32c-4.47,0-8.25,2.18-9.48,5.16c-0.48,0-1.51,0-3.41,0c-2.81,0-3.54,4.99-3.54,4.99s0.38,0,3.19,0c1.58,0,2.68-1.57,3.34-2.95c0,0.02,0,0.05,0,0.07c0,0.31,0.03,0.61,0.09,0.91c-1.16,1.35-1.85,2.95-1.85,4.66c0,0.92,0.2,1.81,0.56,2.64c-0.22,0.64-0.38,1.31-0.45,2c-0.03,0.29-0.05,0.58-0.05,0.88c0,3.8,2.44,7.1,6.03,8.81v1.64c0.54-0.38,1.2-0.61,1.92-0.61c0.71,0,1.37,0.23,1.92,0.61v-0.53c0.57,0.07,1.15,0.13,1.75,0.13V47c0.66,0,1.31-0.04,1.95-0.12C28.7,46.34,32.14,43.91,33.58,38.95C33.58,38.95,33.58,38.95,33.58,38.95z M14.32,33.01c0-0.67,0.54-1.21,1.21-1.21c0.67,0,1.21,0.54,1.21,1.21c0,0.67-0.54,1.21-1.21,1.21C14.86,34.22,14.32,33.68,14.32,33.01z"/>
            <path d="M40.9,34.99c0,0-1.12-7.73-5.48-7.73c-1.96,0-3.33,0-4.25,0c-1.68-2.26-4.95-3.79-8.7-3.79v8.32v2.03c-4.11,0-7.32,2.21-7.32,5.03s3.22,5.03,7.32,5.03v1.1c5.2,0,9.61-2.53,11.11-6.02c0.36-0.83,0.56-1.72,0.56-2.64c0-0.69-0.11-1.36-0.32-2c0.64,0.42,1.35,0.68,2.14,0.68C40.31,34.99,40.9,34.99,40.9,34.99z M22.46,42.69c-3.39,0-6.15-1.72-6.15-3.85c0-2.13,2.75-3.85,6.15-3.85c3.4,0,6.15,1.72,6.15,3.85C28.61,40.97,25.86,42.69,22.46,42.69zM29.4,34.22c-0.67,0-1.21-0.54-1.21-1.21c0-0.67,0.54-1.21,1.21-1.21c0.67,0,1.21,0.54,1.21,1.21C30.61,33.68,30.07,34.22,29.4,34.22z M32.37,30.66c-0.01-0.71-0.15-1.39-0.42-2.04c0.48,0,1.51,0,3.41,0c2.81,0,3.54,4.99,3.54,4.99s-0.38,0-3.19,0C34.13,33.62,33.03,32.04,32.37,30.66z"/>
            <circle cx="15.91" cy="32.69" r="0.46"/>
            <circle cx="29.86" cy="32.69" r="0.46"/>
            <path opacity="0.5" d="M22.46,34.99c-3.39,0-6.15,1.72-6.15,3.85c0,2.13,2.75,3.85,6.15,3.85c3.4,0,6.15-1.72,6.15-3.85C28.61,36.71,25.86,34.99,22.46,34.99z M19.25,39.21c-0.53,0-0.95-0.43-0.95-0.95c0-0.53,0.43-0.95,0.95-0.95c0.53,0,0.95,0.43,0.95,0.95C20.21,38.78,19.78,39.21,19.25,39.21z M25.82,39.21c-0.53,0-0.95-0.43-0.95-0.95c0-0.53,0.43-0.95,0.95-0.95c0.53,0,0.95,0.43,0.95,0.95C26.78,38.78,26.35,39.21,25.82,39.21z"/>
            <path opacity="0.25" d="M26.09,53.97c0.16,0,0.29,0.13,0.29,0.29V55h3.08c0-1.84-1.49-3.34-3.34-3.34c-1.84,0-3.33,1.49-3.33,3.34h3v-0.73C25.79,54.1,25.92,53.97,26.09,53.97z"/>
            <path d="M38.11,43.78c-0.52,0.03-1.04-0.24-1.35-0.64c0.59-0.52,1.04-1.23,0.06-1.52c-0.77-0.22-1.51,0.29-1.42,1.09c0.02,0.21,0.09,0.39,0.18,0.56c-0.45,0.24-1.08,0.11-1.59-0.13c0.06-0.43,0.1-0.87,0.1-1.31c0-0.14,0-0.44-0.05-0.88c0,0,0,0,0,0c0-0.01,0-0.02,0-0.03c-0.02-0.17-0.05-0.37-0.09-0.59c-0.04-0.26-0.1-0.52-0.17-0.77c-0.01-0.04-0.02-0.09-0.04-0.13c-0.04-0.14-0.07-0.28-0.12-0.41c-0.01-0.02-0.01-0.05-0.02-0.07c0,0,0,0.01,0,0.01c-1.44,4.95-4.88,7.38-9.17,7.93C23.78,46.96,23.13,47,22.46,47v4.86c0.6,0,1.18-0.05,1.75-0.13v0.54c0.54-0.38,1.2-0.61,1.92-0.61c0.71,0,1.37,0.23,1.92,0.61v-1.64c2.93-1.39,5.1-3.85,5.79-6.78c0.69,0.14,1.42,0.09,2.04-0.16c0.46,0.45,1.16,0.67,1.8,0.64C38.03,44.32,38.83,43.74,38.11,43.78z"/>
            <path opacity="0.25" d="M18.76,53.97c0.16,0,0.29,0.13,0.29,0.29V55h3.08c0-1.84-1.49-3.34-3.34-3.34c-1.84,0-3.34,1.49-3.34,3.34h3v-0.73C18.47,54.1,18.6,53.97,18.76,53.97z"/>
        </symbol>
        <symbol id="pig-monotone" viewBox="0 0 45 55">
            <circle cx="19.25" cy="38.25" r="0.95"/>
            <circle cx="25.82" cy="38.25" r="0.95"/>
            <path d="M36.76,43.14c0.59-0.52,1.04-1.23,0.06-1.52c-0.77-0.22-1.51,0.29-1.42,1.09c0.02,0.21,0.09,0.39,0.18,0.56c-0.45,0.24-1.08,0.11-1.59-0.13c0.06-0.43,0.1-0.87,0.1-1.31c0-0.14,0-0.44-0.05-0.88c0,0,0,0,0,0c0-0.01,0-0.02,0-0.03c-0.02-0.17-0.05-0.37-0.09-0.59c-0.04-0.26-0.1-0.52-0.17-0.77c-0.01-0.04-0.02-0.09-0.04-0.13c-0.04-0.14-0.07-0.28-0.12-0.41c-0.01-0.02-0.01-0.05-0.02-0.07c0,0,0,0.01,0,0.01c0,0,0,0,0-0.01c0.36-0.83,0.56-1.72,0.56-2.64c0-0.69-0.11-1.36-0.32-2c0.64,0.42,1.35,0.68,2.14,0.68c4.35,0,4.94,0,4.94,0s-1.12-7.73-5.48-7.73c-1.96,0-3.33,0-4.25,0c-1.68-2.26-4.95-3.79-8.7-3.79c-3.75,0-7.01,1.53-8.69,3.79c-0.92,0-2.29,0-4.26,0c-4.35,0-5.48,7.73-5.48,7.73s0.59,0,4.94,0c0.79,0,1.51-0.26,2.14-0.68c0,0,0,0,0,0c-0.21,0.64-0.32,1.31-0.32,2c0,0.92,0.2,1.81,0.56,2.64c-0.22,0.64-0.38,1.31-0.45,2c-0.03,0.29-0.05,0.58-0.05,0.88c0,3.8,2.44,7.1,6.03,8.81v1.64l0,0c-0.86,0.6-1.42,1.6-1.42,2.72h3v-0.73c0-0.16,0.13-0.29,0.29-0.29c0.16,0,0.29,0.13,0.29,0.29V55h3.08c0-1.13-0.56-2.12-1.42-2.72c0,0,0,0,0,0v-0.53c0.57,0.07,1.15,0.13,1.75,0.13c0.6,0,1.18-0.05,1.75-0.13v0.54c-0.86,0.6-1.42,1.6-1.42,2.72h3v-0.73c0-0.16,0.13-0.29,0.29-0.29c0.16,0,0.29,0.13,0.29,0.29V55h3.08c0-1.13-0.56-2.12-1.42-2.72l0,0v-1.64c2.93-1.39,5.1-3.85,5.79-6.78c0.69,0.14,1.42,0.09,2.04-0.16c0.46,0.45,1.16,0.67,1.8,0.64c0.36-0.02,1.16-0.59,0.43-0.55C37.59,43.81,37.07,43.55,36.76,43.14zM11.37,33.64c0.01-0.03,0.03-0.07,0.05-0.1C11.4,33.58,11.39,33.61,11.37,33.64z M11.69,33c0.03-0.05,0.05-0.1,0.08-0.14C11.75,32.91,11.72,32.95,11.69,33z M12.08,32.38c0.03-0.05,0.07-0.1,0.1-0.15C12.15,32.28,12.12,32.33,12.08,32.38z M12.56,30.66c0,0.02,0,0.04,0,0.07C12.56,30.71,12.56,30.69,12.56,30.66c-0.66,1.38-1.76,2.95-3.34,2.95c-2.81,0-3.19,0-3.19,0s0.73-4.99,3.54-4.99c1.9,0,2.93,0,3.41,0C12.72,29.27,12.57,29.96,12.56,30.66z M13.36,27.88c-0.01,0.03-0.03,0.05-0.05,0.08C13.33,27.93,13.35,27.9,13.36,27.88z M35.36,28.63c2.81,0,3.54,4.99,3.54,4.99s-0.38,0-3.19,0c-1.58,0-2.68-1.57-3.34-2.95c-0.01-0.71-0.15-1.39-0.42-2.04C32.42,28.63,33.46,28.63,35.36,28.63z M29.4,31.8c0.67,0,1.21,0.54,1.21,1.21c0,0.67-0.54,1.21-1.21,1.21c-0.67,0-1.21-0.54-1.21-1.21C28.19,32.34,28.73,31.8,29.4,31.8z M28.61,38.84c0,2.13-2.75,3.85-6.15,3.85c-3.39,0-6.15-1.72-6.15-3.85c0-2.13,2.75-3.85,6.15-3.85C25.86,34.99,28.61,36.71,28.61,38.84zM14.32,33.01c0-0.67,0.54-1.21,1.21-1.21c0.67,0,1.21,0.54,1.21,1.21c0,0.67-0.54,1.21-1.21,1.21C14.86,34.22,14.32,33.68,14.32,33.01z M18.8,51.66c-0.21,0-0.41,0.02-0.6,0.06C18.39,51.69,18.59,51.66,18.8,51.66s0.41,0.02,0.6,0.06C19.21,51.69,19.01,51.66,18.8,51.66z M17.13,52.13c0.08-0.05,0.17-0.1,0.26-0.14C17.3,52.03,17.22,52.08,17.13,52.13z M17.64,51.88c0.11-0.04,0.23-0.08,0.34-0.11C17.87,51.81,17.75,51.84,17.64,51.88zM20.21,51.99c0.09,0.04,0.17,0.09,0.26,0.14C20.38,52.08,20.3,52.03,20.21,51.99z M19.62,51.78c0.12,0.03,0.23,0.06,0.34,0.11C19.85,51.84,19.73,51.81,19.62,51.78z M26.13,51.66c-0.21,0-0.41,0.02-0.6,0.06C25.72,51.69,25.92,51.66,26.13,51.66c0.21,0,0.41,0.02,0.6,0.06C26.53,51.69,26.33,51.66,26.13,51.66z M24.46,52.13c0.08-0.05,0.17-0.1,0.26-0.14C24.63,52.03,24.55,52.08,24.46,52.13z M24.97,51.88c0.11-0.04,0.23-0.08,0.34-0.11C25.19,51.81,25.08,51.84,24.97,51.88zM27.54,51.99c0.09,0.04,0.17,0.09,0.26,0.14C27.71,52.08,27.62,52.03,27.54,51.99z M26.94,51.78c0.12,0.03,0.23,0.06,0.34,0.11C27.17,51.84,27.06,51.81,26.94,51.78z"/>
        </symbol>

        <symbol id='rabbit-duotone' viewBox='0 0 45 55'>
            <path d="M30.89,44.98c-1.68,2.51-4.81,4.4-8.42,4.41v2.86c0.48,0,0.94-0.04,1.39-0.11v0.57c-0.65,0.55-1.08,1.36-1.08,2.28h5.97c0-0.92-0.42-1.73-1.08-2.28v-2.09C29.55,49.3,30.78,47.28,30.89,44.98z"/>
            <circle opacity="0.25" cx="16.15" cy="35.92" r="1.61"/>
            <circle opacity="0.25" cx="28.77" cy="35.92" r="1.61"/>
            <circle cx="16.83" cy="35.42" r="0.5"/>
            <circle cx="29.55" cy="35.42" r="0.5"/>
            <path opacity="0.25" d="M24.7,39.8l-2.27,0.26l-2.27-0.26c-0.21-0.03-0.41,0.13-0.43,0.34c-0.02,0.21,0.13,0.41,0.34,0.43l1.94,0.22v2.85c-0.13,0.15-0.43,0.44-0.73,0.28c-0.19-0.1-0.43-0.03-0.53,0.16c-0.1,0.19-0.03,0.43,0.16,0.53c0.19,0.1,0.38,0.15,0.56,0.15c0.38,0,0.71-0.2,0.96-0.42c0.24,0.22,0.57,0.42,0.95,0.42c0.18,0,0.37-0.04,0.56-0.14c0.19-0.1,0.27-0.34,0.17-0.53c-0.1-0.19-0.34-0.27-0.53-0.17c-0.32,0.17-0.61-0.12-0.73-0.27V40.8l1.94-0.22c0.21-0.02,0.37-0.22,0.34-0.43C25.11,39.93,24.92,39.77,24.7,39.8z"/>
            <path opacity="0.5" d="M30.94,44.64c0,0.01,0,0.01,0,0.02c-0.64,0.41-1.23,0.92-1.84,1.39c-1.35,1.04-3.37,1.66-6.6,1.66c-0.01,0-0.02,0-0.03,0v-3.34c-0.01-0.01-0.02-0.02-0.03-0.02c-0.24,0.22-0.58,0.42-0.96,0.42c-0.18,0-0.36-0.04-0.56-0.15c-0.19-0.1-0.26-0.34-0.16-0.53c0.1-0.19,0.34-0.26,0.53-0.16c0.3,0.16,0.6-0.12,0.73-0.28V40.8l-1.94-0.22c-0.21-0.02-0.37-0.22-0.34-0.43c0.03-0.21,0.22-0.37,0.43-0.34l2.27,0.26l0.03,0V39.1c0,0,0.01,0,0.01,0c0,0-0.01,0-0.01,0v-4.03v-1.66v-7.3c-1.63,0-3.15,0.28-4.41,0.76c-0.03,0.01-0.06,0.02-0.09,0.04c-0.13,0.05-0.26,0.11-0.39,0.16c-2.93,1.08-5.38,4.31-6.16,9.59c0,0-0.78,5.09-2.15,5.77c0,0,2.13,0.65,4.33,1.97c0.14,0.25,0.29,0.49,0.46,0.73c0.15,2.23,1.37,4.21,3.21,5.51v2.09c-0.65,0.55-1.08,1.36-1.08,2.28h5.97c0-0.92-0.42-1.73-1.08-2.28v-0.57c0.45,0.07,0.92,0.11,1.39,0.11V49.4c3.87-0.01,7.2-2.17,8.77-4.94C31.14,44.52,31.04,44.58,30.94,44.64z M16.15,37.53c-0.89,0-1.61-0.72-1.61-1.61c0-0.89,0.72-1.62,1.61-1.62c0.89,0,1.62,0.72,1.62,1.62C17.77,36.81,17.04,37.53,16.15,37.53z"/>
            <path opacity="0.25" d="M15.31,28.44c0.15-0.13,0.3-0.25,0.46-0.36c-1.58-5.11,0.36-9.77-0.08-11.84c-0.47-2.23-0.47-3.98-0.47-3.98C9.21,20.88,13.37,26.5,15.31,28.44z"/>
            <path d="M19.02,13.77c-2.51-8.71-6.17-4.7-8.2,3.76c-1.36,5.69,1.09,9.6,3.31,12.17c0.37-0.47,0.76-0.9,1.18-1.26c-1.94-1.93-6.1-7.55-0.09-16.19c0,0,0,1.76,0.47,3.98c0.44,2.07-1.5,6.74,0.08,11.84c0.57-0.43,1.18-0.78,1.81-1.01c0.14-0.05,0.26-0.1,0.39-0.16c0.03-0.01,0.06-0.02,0.09-0.04c0.46-0.18,0.97-0.31,1.5-0.43C20.09,23.16,20.38,18.5,19.02,13.77z"/>
            <path d="M35.67,42.43c-1.37-0.69-2.15-5.77-2.15-5.77c-0.4-2.71-1.24-4.86-2.36-6.48c2.31-2.54,5.17-6.59,3.73-12.64c-2.02-8.47-5.68-12.47-8.2-3.76c-1.39,4.83-1.07,9.59-0.5,12.88c-1.11-0.34-2.38-0.54-3.73-0.54v7.3v1.66v4.03c0,0,0.01,0,0.01,0c0,0-0.01,0-0.01,0v0.96l2.24-0.26c0.21-0.03,0.41,0.13,0.43,0.34c0.02,0.22-0.13,0.41-0.34,0.43l-1.94,0.22v2.85c0.12,0.15,0.41,0.44,0.73,0.27c0.19-0.1,0.43-0.02,0.53,0.17c0.1,0.19,0.02,0.43-0.17,0.53c-0.2,0.1-0.39,0.14-0.56,0.14c-0.37,0-0.69-0.18-0.92-0.39v3.34c0.01,0,0.02,0,0.03,0c3.24,0,5.25-0.63,6.6-1.66c0.62-0.47,1.21-0.98,1.84-1.39c0-0.01,0-0.01,0-0.02c0.1-0.06,0.2-0.12,0.3-0.18C33.47,43.1,35.67,42.43,35.67,42.43zM30.03,16.23c0.47-2.23,0.47-3.98,0.47-3.98c6.46,9.29,1.17,15.08-0.49,16.56c-0.08-0.08-0.16-0.15-0.24-0.23C31.65,23.28,29.57,18.37,30.03,16.23z M28.77,37.53c-0.89,0-1.61-0.72-1.61-1.61c0-0.89,0.72-1.62,1.61-1.62c0.89,0,1.61,0.72,1.61,1.62C30.39,36.81,29.67,37.53,28.77,37.53z"/>
            <path opacity="0.25" d="M29.97,16.68c0,0.04,0,0.08,0,0.12c0,0.13-0.01,0.25,0,0.39c0,0.03,0,0.07,0.01,0.1c0.11,2.47,1.42,6.73-0.2,11.29c0,0,0,0,0,0c0.08,0.07,0.16,0.15,0.24,0.23c0,0,0,0,0,0c0.04-0.04,0.09-0.08,0.14-0.13c0.02-0.01,0.03-0.03,0.05-0.04c0.04-0.04,0.09-0.08,0.14-0.13c0.03-0.02,0.05-0.05,0.08-0.08c0.04-0.04,0.09-0.09,0.13-0.13c0.04-0.04,0.08-0.09,0.13-0.14c0.03-0.03,0.06-0.07,0.1-0.1c0.08-0.09,0.16-0.17,0.24-0.27c0.02-0.03,0.04-0.05,0.07-0.08c0.06-0.07,0.13-0.15,0.19-0.23c0.03-0.03,0.05-0.07,0.08-0.1c0.06-0.08,0.12-0.16,0.19-0.24c0.03-0.04,0.05-0.07,0.08-0.11c0.06-0.09,0.13-0.18,0.19-0.27c0.02-0.04,0.05-0.07,0.07-0.11c0.07-0.11,0.14-0.22,0.21-0.33c0.01-0.02,0.03-0.05,0.04-0.07c0.17-0.29,0.34-0.6,0.5-0.93c0.01-0.01,0.01-0.03,0.02-0.04c0.07-0.15,0.14-0.3,0.2-0.46c0.02-0.04,0.03-0.07,0.04-0.11c0.05-0.14,0.11-0.28,0.16-0.42c0.02-0.04,0.03-0.09,0.05-0.13c0.05-0.14,0.09-0.29,0.13-0.43c0.01-0.05,0.03-0.09,0.04-0.14c0.04-0.16,0.08-0.32,0.12-0.49c0.01-0.03,0.02-0.06,0.02-0.1c0.09-0.41,0.15-0.84,0.19-1.29c0-0.03,0-0.06,0.01-0.1c0.01-0.19,0.02-0.38,0.03-0.57c0-0.06,0-0.13,0-0.19c0-0.17,0-0.34-0.01-0.51c0-0.07-0.01-0.15-0.01-0.22c-0.01-0.17-0.03-0.34-0.05-0.51c-0.01-0.08-0.02-0.15-0.03-0.23c-0.02-0.19-0.06-0.38-0.09-0.57c-0.01-0.06-0.02-0.13-0.03-0.19c-0.1-0.52-0.24-1.05-0.43-1.6c-0.02-0.07-0.05-0.15-0.08-0.22c-0.07-0.2-0.14-0.4-0.23-0.61c-0.04-0.1-0.08-0.2-0.13-0.3c-0.08-0.18-0.16-0.37-0.25-0.56c-0.05-0.11-0.1-0.22-0.16-0.33c-0.09-0.19-0.19-0.38-0.29-0.57c-0.06-0.11-0.12-0.22-0.18-0.34c-0.11-0.21-0.24-0.41-0.37-0.62c-0.06-0.1-0.11-0.19-0.18-0.29c-0.19-0.31-0.4-0.62-0.62-0.94c0,0,0,1.76-0.47,3.98C30,16.37,29.98,16.52,29.97,16.68z"/>
        </symbol>
        <symbol id="rabbit-monotone" viewBox="0 0 45 55">
            <path d="M33.52,36.65c-0.4-2.71-1.24-4.86-2.36-6.48c2.31-2.54,5.17-6.59,3.73-12.64c-2.02-8.47-5.68-12.47-8.2-3.76c-1.39,4.83-1.07,9.59-0.5,12.88c-1.11-0.34-2.38-0.54-3.73-0.54c-1.03,0-2.01,0.12-2.91,0.33c0.55-3.28,0.83-7.94-0.53-12.67c-2.51-8.71-6.17-4.7-8.2,3.76c-1.36,5.69,1.09,9.6,3.31,12.17c0,0,0,0,0,0c-1.29,1.66-2.28,3.96-2.72,6.95c0,0-0.78,5.09-2.15,5.77c0,0,2.13,0.65,4.33,1.97c0.14,0.25,0.29,0.49,0.46,0.73c0.15,2.23,1.37,4.21,3.21,5.51v2.09c-0.65,0.55-1.08,1.36-1.08,2.28h5.97c0-0.92-0.42-1.73-1.08-2.28v-0.57c0.45,0.07,0.92,0.11,1.39,0.11s0.94-0.04,1.39-0.11v0.57c-0.65,0.55-1.08,1.36-1.08,2.28h5.97c0-0.92-0.42-1.73-1.08-2.28v-2.09c1.88-1.33,3.1-3.36,3.21-5.65c0.12-0.17,0.25-0.34,0.35-0.52c2.24-1.36,4.44-2.03,4.44-2.03C34.3,41.74,33.52,36.65,33.52,36.65z M15.22,12.25c0,0,0,1.76,0.47,3.98c0.44,2.07-1.5,6.74,0.08,11.84c-0.15,0.12-0.31,0.23-0.46,0.36C13.37,26.5,9.21,20.88,15.22,12.25z M16.15,37.53c-0.89,0-1.61-0.72-1.61-1.61c0-0.89,0.72-1.62,1.61-1.62c0.89,0,1.62,0.72,1.62,1.62C17.77,36.81,17.04,37.53,16.15,37.53z M23.95,44.62c-0.2,0.1-0.39,0.14-0.56,0.14c-0.37,0-0.69-0.18-0.92-0.39c-0.01-0.01-0.02-0.02-0.03-0.02c-0.24,0.22-0.58,0.42-0.96,0.42c-0.18,0-0.36-0.04-0.56-0.15c-0.19-0.1-0.26-0.34-0.16-0.53c0.1-0.19,0.34-0.26,0.53-0.16c0.3,0.16,0.6-0.12,0.73-0.28V40.8l-1.94-0.22c-0.21-0.02-0.37-0.22-0.34-0.43c0.03-0.21,0.22-0.37,0.43-0.34l2.27,0.26l0.03,0l2.24-0.26c0.21-0.03,0.41,0.13,0.43,0.34c0.02,0.22-0.13,0.41-0.34,0.43l-1.94,0.22v2.85c0.12,0.15,0.41,0.44,0.73,0.27c0.19-0.1,0.43-0.02,0.53,0.17C24.22,44.28,24.14,44.52,23.95,44.62z M28.77,37.53c-0.89,0-1.61-0.72-1.61-1.61c0-0.89,0.72-1.62,1.61-1.62c0.89,0,1.61,0.72,1.61,1.62C30.39,36.81,29.67,37.53,28.77,37.53z M30.01,28.81c-0.08-0.08-0.16-0.15-0.24-0.23c1.88-5.31-0.2-10.21,0.25-12.35c0.47-2.23,0.47-3.98,0.47-3.98C36.95,21.53,31.66,27.33,30.01,28.81z"/>
        </symbol>
    </defs>
</svg>
