<?xml version="1.0" encoding="utf-8"?>
<!DOCTYPE svg PUBLIC "-//W3C//DTD SVG 1.1//EN" "http://www.w3.org/Graphics/SVG/1.1/DTD/svg11.dtd">
<svg version="1.1" xmlns="http://www.w3.org/2000/svg" xmlns:xlink="http://www.w3.org/1999/xlink" x="0px" y="0px" viewBox="0 0 512 512" enable-background="new 0 0 512 512" xml:space="preserve">
    <defs>
        <style type='text/css'><![CDATA[
            g { display: none; }
            g:target { display: block; }
            composite {
                fill: transparent !important;
                stroke: red;
                stroke-width: 2px;
            }
        ]]></style>
        <symbol id='android-symbol'>
            <circle fill="#47DD98" cx="288.32" cy="172.59" r="11.34"/>
            <circle fill="#47DD98" cx="225.74" cy="172.59" r="11.34"/>
            <path fill="#47DD98" d="M256,21C125.66,21,20,126.21,20,256s105.66,235,236,235s236-105.21,236-235S386.34,21,256,21zM181.49,274.29c0,8.6-9.72,15.65-18.33,15.65c-8.61,0-15.65-7.04-15.65-15.65v-62.58c0-8.6,7.04-15.65,15.65-15.65c8.61,0,18.33,7.04,18.33,15.65V274.29z M228.04,139.71l-9.9-19.02c-0.5-0.95-0.12-2.14,0.83-2.64c0.96-0.5,2.15-0.12,2.64,0.83l10.05,19.3c7.87-3.04,16.42-4.71,25.37-4.71c8.95,0,17.5,1.67,25.37,4.71l10.05-19.3c0.5-0.96,1.68-1.33,2.64-0.83c0.95,0.5,1.33,1.68,0.83,2.64l-9.9,19.02c22.15,10.02,38.2,31.18,40.98,56.35H187.06C189.84,170.9,205.89,149.74,228.04,139.71zM330.3,297.76c0,12.96-13.37,24.18-26.33,24.18h-7.82v30.58c0,8.6-7.04,15.65-15.65,15.65s-18.33-6.69-18.33-15.29l-0.36-30.4l-11.89-0.54l0.36,30.4c0,8.6-8.11,15.82-16.72,15.82c-8.61,0-17.08-7.22-17.08-15.82l-0.18-30.04l-6.57-0.18c-12.96,0-22.04-11.41-22.04-24.36V207.6h142.6V297.76z M370.49,274.29c0,8.6-9,15.65-17.61,15.65s-17.08-7.04-17.08-15.65v-62.58c0-8.6,7.93-15.47,16.54-15.47c8.61,0,18.15,6.86,18.15,15.47V274.29z"/>
        </symbol>
        <symbol id='ios-symbol'>
            <path fill="#E9F5EF" d="M256,21C125.66,21,20,126.21,20,256s105.66,235,236,235s236-105.21,236-235S386.34,21,256,21zM268.54,129.42c8.9-10.79,23.96-18.81,36.37-19.33c1.59,14.96-4.23,29.95-12.85,40.76c-8.63,10.78-22.78,19.19-36.63,18.07C253.55,154.26,260.55,138.99,268.54,129.42z M339.2,333.67c-10.3,15.56-20.97,31.05-37.79,31.36c-16.54,0.32-21.86-10.14-40.77-10.14c-18.91,0-24.82,9.82-40.46,10.45c-16.24,0.62-28.61-16.8-38.99-32.31c-21.22-31.68-37.43-89.55-15.65-128.61c10.8-19.41,30.13-31.69,51.09-32c15.95-0.31,31.01,11.1,40.75,11.1c9.75,0,28.05-13.72,47.28-11.7c8.05,0.34,30.64,3.35,45.16,25.3c-1.16,0.76-26.97,16.27-26.66,48.61c0.32,38.61,32.77,51.47,33.14,51.64C356,298.27,351.1,315.69,339.2,333.67z"/>
        </symbol>
    </defs>
    <g id='android'>
        <use xlink:href='#android-symbol' />
    </g>
    <g id='ios'>
        <use xlink:href='#ios-symbol' />
    </g>
</svg>
