<svg width="1436" height="739" xmlns="http://www.w3.org/2000/svg"><g><path d="M-33,-32L-122,75L56,117Z" fill="#a76519" stroke="#a76519" fill-opacity="1" stroke-opacity="1"/><path d="M-33,-32L56,117L113,-98Z" fill="#9f5d1b" stroke="#9f5d1b" fill-opacity="1" stroke-opacity="1"/><path d="M113,-98L56,117L262,50Z" fill="#b67327" stroke="#b67327" fill-opacity="1" stroke-opacity="1"/><path d="M113,-98L262,50L216,-90Z" fill="#a66528" stroke="#a66528" fill-opacity="1" stroke-opacity="1"/><path d="M113,-98L216,-90L847,-123Z" fill="#a3744d" stroke="#a3744d" fill-opacity="1" stroke-opacity="1"/><path d="M216,-90L262,50L364,-56Z" fill="#b2793c" stroke="#b2793c" fill-opacity="1" stroke-opacity="1"/><path d="M216,-90L364,-56L506,-72Z" fill="#ab7b4a" stroke="#ab7b4a" fill-opacity="1" stroke-opacity="1"/><path d="M216,-90L506,-72L847,-123Z" fill="#ae8567" stroke="#ae8567" fill-opacity="1" stroke-opacity="1"/><path d="M364,-56L262,50L391,42Z" fill="#c5924d" stroke="#c5924d" fill-opacity="1" stroke-opacity="1"/><path d="M364,-56L391,42L506,-72Z" fill="#be8f59" stroke="#be8f59" fill-opacity="1" stroke-opacity="1"/><path d="M506,-72L391,42L494,129Z" fill="#d5a768" stroke="#d5a768" fill-opacity="1" stroke-opacity="1"/><path d="M506,-72L494,129L619,86Z" fill="#deb378" stroke="#deb378" fill-opacity="1" stroke-opacity="1"/><path d="M506,-72L619,86L695,-30Z" fill="#c4a379" stroke="#c4a379" fill-opacity="1" stroke-opacity="1"/><path d="M506,-72L695,-30L847,-123Z" fill="#a38e79" stroke="#a38e79" fill-opacity="1" stroke-opacity="1"/><path d="M695,-30L619,86L787,25Z" fill="#c3ae85" stroke="#c3ae85" fill-opacity="1" stroke-opacity="1"/><path d="M695,-30L787,25L847,-123Z" fill="#9e937a" stroke="#9e937a" fill-opacity="1" stroke-opacity="1"/><path d="M847,-123L787,25L941,-20Z" fill="#8e8d72" stroke="#8e8d72" fill-opacity="1" stroke-opacity="1"/><path d="M847,-123L941,-20L1109,-27Z" fill="#737a63" stroke="#737a63" fill-opacity="1" stroke-opacity="1"/><path d="M847,-123L1109,-27L1311,-83Z" fill="#536250" stroke="#536250" fill-opacity="1" stroke-opacity="1"/><path d="M847,-123L1311,-83L1533,-132Z" fill="#334339" stroke="#334339" fill-opacity="1" stroke-opacity="1"/><path d="M941,-20L787,25L1006,176Z" fill="#a5a876" stroke="#a5a876" fill-opacity="1" stroke-opacity="1"/><path d="M941,-20L1006,176L1022,40Z" fill="#969d6c" stroke="#969d6c" fill-opacity="1" stroke-opacity="1"/><path d="M941,-20L1022,40L1109,-27Z" fill="#788361" stroke="#788361" fill-opacity="1" stroke-opacity="1"/><path d="M1109,-27L1022,40L1134,79Z" fill="#77845b" stroke="#77845b" fill-opacity="1" stroke-opacity="1"/><path d="M1109,-27L1134,79L1311,-83Z" fill="#5b6a4a" stroke="#5b6a4a" fill-opacity="1" stroke-opacity="1"/><path d="M1311,-83L1134,79L1280,131Z" fill="#647347" stroke="#647347" fill-opacity="1" stroke-opacity="1"/><path d="M1311,-83L1280,131L1368,-17Z" fill="#575e39" stroke="#575e39" fill-opacity="1" stroke-opacity="1"/><path d="M1311,-83L1368,-17L1533,-132Z" fill="#3a3725" stroke="#3a3725" fill-opacity="1" stroke-opacity="1"/><path d="M1368,-17L1280,131L1397,24Z" fill="#636539" stroke="#636539" fill-opacity="1" stroke-opacity="1"/><path d="M1368,-17L1397,24L1533,-132Z" fill="#463e25" stroke="#463e25" fill-opacity="1" stroke-opacity="1"/><path d="M1533,-132L1397,24L1570,33Z" fill="#4b3a1d" stroke="#4b3a1d" fill-opacity="1" stroke-opacity="1"/><path d="M-122,75L-81,774L-58,363Z" fill="#a09b7b" stroke="#a09b7b" fill-opacity="1" stroke-opacity="1"/><path d="M-122,75L-58,363L-42,210Z" fill="#bb9659" stroke="#bb9659" fill-opacity="1" stroke-opacity="1"/><path d="M-122,75L-42,210L56,117Z" fill="#b98232" stroke="#b98232" fill-opacity="1" stroke-opacity="1"/><path d="M56,117L-42,210L53,178Z" fill="#c69849" stroke="#c69849" fill-opacity="1" stroke-opacity="1"/><path d="M56,117L53,178L262,172Z" fill="#d3a14d" stroke="#d3a14d" fill-opacity="1" stroke-opacity="1"/><path d="M56,117L262,172L262,50Z" fill="#d6993f" stroke="#d6993f" fill-opacity="1" stroke-opacity="1"/><path d="M262,50L262,172L391,42Z" fill="#dba34d" stroke="#dba34d" fill-opacity="1" stroke-opacity="1"/><path d="M391,42L262,172L408,183Z" fill="#e7be6d" stroke="#e7be6d" fill-opacity="1" stroke-opacity="1"/><path d="M391,42L408,183L494,129Z" fill="#eac075" stroke="#eac075" fill-opacity="1" stroke-opacity="1"/><path d="M494,129L408,183L533,212Z" fill="#f5dd9c" stroke="#f5dd9c" fill-opacity="1" stroke-opacity="1"/><path d="M494,129L533,212L619,86Z" fill="#f3d697" stroke="#f3d697" fill-opacity="1" stroke-opacity="1"/><path d="M619,86L533,212L635,235Z" fill="#f2e5ae" stroke="#f2e5ae" fill-opacity="1" stroke-opacity="1"/><path d="M619,86L635,235L787,25Z" fill="#decc96" stroke="#decc96" fill-opacity="1" stroke-opacity="1"/><path d="M787,25L635,235L837,245Z" fill="#dadfb1" stroke="#dadfb1" fill-opacity="1" stroke-opacity="1"/><path d="M787,25L837,245L1006,176Z" fill="#becd9b" stroke="#becd9b" fill-opacity="1" stroke-opacity="1"/><path d="M1022,40L1006,176L1080,183Z" fill="#9bb07d" stroke="#9bb07d" fill-opacity="1" stroke-opacity="1"/><path d="M1022,40L1080,183L1134,79Z" fill="#8e9c67" stroke="#8e9c67" fill-opacity="1" stroke-opacity="1"/><path d="M1134,79L1080,183L1221,240Z" fill="#8eae80" stroke="#8eae80" fill-opacity="1" stroke-opacity="1"/><path d="M1134,79L1221,240L1280,131Z" fill="#829e6e" stroke="#829e6e" fill-opacity="1" stroke-opacity="1"/><path d="M1280,131L1221,240L1482,207Z" fill="#809e74" stroke="#809e74" fill-opacity="1" stroke-opacity="1"/><path d="M1280,131L1482,207L1397,24Z" fill="#767b47" stroke="#767b47" fill-opacity="1" stroke-opacity="1"/><path d="M1397,24L1482,207L1570,33Z" fill="#71602a" stroke="#71602a" fill-opacity="1" stroke-opacity="1"/><path d="M1570,33L1482,207L1574,245Z" fill="#7c7647" stroke="#7c7647" fill-opacity="1" stroke-opacity="1"/><path d="M1570,33L1574,245L1631,373Z" fill="#807d5b" stroke="#807d5b" fill-opacity="1" stroke-opacity="1"/><path d="M-42,210L-58,363L53,178Z" fill="#c4a36c" stroke="#c4a36c" fill-opacity="1" stroke-opacity="1"/><path d="M53,178L-58,363L119,391Z" fill="#c8ad81" stroke="#c8ad81" fill-opacity="1" stroke-opacity="1"/><path d="M53,178L119,391L262,172Z" fill="#dab87a" stroke="#dab87a" fill-opacity="1" stroke-opacity="1"/><path d="M262,172L119,391L253,377Z" fill="#dfc697" stroke="#dfc697" fill-opacity="1" stroke-opacity="1"/><path d="M262,172L253,377L417,322Z" fill="#e9d8aa" stroke="#e9d8aa" fill-opacity="1" stroke-opacity="1"/><path d="M262,172L417,322L408,183Z" fill="#efdb9c" stroke="#efdb9c" fill-opacity="1" stroke-opacity="1"/><path d="M408,183L417,322L533,212Z" fill="#f5e6b4" stroke="#f5e6b4" fill-opacity="1" stroke-opacity="1"/><path d="M533,212L417,322L515,350Z" fill="#f6eece" stroke="#f6eece" fill-opacity="1" stroke-opacity="1"/><path d="M533,212L515,350L635,235Z" fill="#f8f2d3" stroke="#f8f2d3" fill-opacity="1" stroke-opacity="1"/><path d="M635,235L515,350L639,357Z" fill="#f0f4e0" stroke="#f0f4e0" fill-opacity="1" stroke-opacity="1"/><path d="M635,235L639,357L788,358Z" fill="#e3f5e9" stroke="#e3f5e9" fill-opacity="1" stroke-opacity="1"/><path d="M635,235L788,358L837,245Z" fill="#dcf2e4" stroke="#dcf2e4" fill-opacity="1" stroke-opacity="1"/><path d="M837,245L788,358L946,331Z" fill="#c4eadd" stroke="#c4eadd" fill-opacity="1" stroke-opacity="1"/><path d="M837,245L946,331L1006,176Z" fill="#b9dec5" stroke="#b9dec5" fill-opacity="1" stroke-opacity="1"/><path d="M1006,176L946,331L1080,183Z" fill="#a8cfb0" stroke="#a8cfb0" fill-opacity="1" stroke-opacity="1"/><path d="M1080,183L946,331L1083,420Z" fill="#9fd1c6" stroke="#9fd1c6" fill-opacity="1" stroke-opacity="1"/><path d="M1080,183L1083,420L1221,240Z" fill="#92c4b6" stroke="#92c4b6" fill-opacity="1" stroke-opacity="1"/><path d="M1221,240L1083,420L1247,417Z" fill="#83bdb7" stroke="#83bdb7" fill-opacity="1" stroke-opacity="1"/><path d="M1221,240L1247,417L1416,410Z" fill="#78aea8" stroke="#78aea8" fill-opacity="1" stroke-opacity="1"/><path d="M1221,240L1416,410L1482,207Z" fill="#7fa395" stroke="#7fa395" fill-opacity="1" stroke-opacity="1"/><path d="M1482,207L1416,410L1574,245Z" fill="#7f9385" stroke="#7f9385" fill-opacity="1" stroke-opacity="1"/><path d="M1574,245L1416,410L1631,373Z" fill="#798c85" stroke="#798c85" fill-opacity="1" stroke-opacity="1"/><path d="M-58,363L-81,774L-43,481Z" fill="#64805a" stroke="#64805a" fill-opacity="1" stroke-opacity="1"/><path d="M-58,363L-43,481L119,391Z" fill="#aaa780" stroke="#aaa780" fill-opacity="1" stroke-opacity="1"/><path d="M119,391L-43,481L30,583Z" fill="#8ca074" stroke="#8ca074" fill-opacity="1" stroke-opacity="1"/><path d="M119,391L30,583L258,524Z" fill="#94a879" stroke="#94a879" fill-opacity="1" stroke-opacity="1"/><path d="M119,391L258,524L253,377Z" fill="#bdc295" stroke="#bdc295" fill-opacity="1" stroke-opacity="1"/><path d="M253,377L258,524L417,322Z" fill="#d0d6ae" stroke="#d0d6ae" fill-opacity="1" stroke-opacity="1"/><path d="M417,322L258,524L351,580Z" fill="#b4d4a9" stroke="#b4d4a9" fill-opacity="1" stroke-opacity="1"/><path d="M417,322L351,580L544,479Z" fill="#c1e4c1" stroke="#c1e4c1" fill-opacity="1" stroke-opacity="1"/><path d="M417,322L544,479L515,350Z" fill="#e8eed6" stroke="#e8eed6" fill-opacity="1" stroke-opacity="1"/><path d="M515,350L544,479L615,467Z" fill="#d2f0db" stroke="#d2f0db" fill-opacity="1" stroke-opacity="1"/><path d="M515,350L615,467L639,357Z" fill="#e1f3e3" stroke="#e1f3e3" fill-opacity="1" stroke-opacity="1"/><path d="M639,357L615,467L788,358Z" fill="#d4f3eb" stroke="#d4f3eb" fill-opacity="1" stroke-opacity="1"/><path d="M788,358L615,467L777,525Z" fill="#b4f0e6" stroke="#b4f0e6" fill-opacity="1" stroke-opacity="1"/><path d="M788,358L777,525L960,518Z" fill="#95e4d8" stroke="#95e4d8" fill-opacity="1" stroke-opacity="1"/><path d="M788,358L960,518L946,331Z" fill="#a8e4dc" stroke="#a8e4dc" fill-opacity="1" stroke-opacity="1"/><path d="M946,331L960,518L1083,420Z" fill="#8ad4cb" stroke="#8ad4cb" fill-opacity="1" stroke-opacity="1"/><path d="M1083,420L960,518L1122,546Z" fill="#5bbeb3" stroke="#5bbeb3" fill-opacity="1" stroke-opacity="1"/><path d="M1083,420L1122,546L1247,417Z" fill="#5dbcb1" stroke="#5dbcb1" fill-opacity="1" stroke-opacity="1"/><path d="M1247,417L1122,546L1276,547Z" fill="#3fa59a" stroke="#3fa59a" fill-opacity="1" stroke-opacity="1"/><path d="M1247,417L1276,547L1380,485Z" fill="#42a095" stroke="#42a095" fill-opacity="1" stroke-opacity="1"/><path d="M1247,417L1380,485L1416,410Z" fill="#58a399" stroke="#58a399" fill-opacity="1" stroke-opacity="1"/><path d="M1416,410L1380,485L1619,571Z" fill="#3f877c" stroke="#3f877c" fill-opacity="1" stroke-opacity="1"/><path d="M1416,410L1619,571L1631,373Z" fill="#51857b" stroke="#51857b" fill-opacity="1" stroke-opacity="1"/><path d="M-43,481L-81,774L-18,709Z" fill="#505c36" stroke="#505c36" fill-opacity="1" stroke-opacity="1"/><path d="M-43,481L-18,709L30,583Z" fill="#5f764e" stroke="#5f764e" fill-opacity="1" stroke-opacity="1"/><path d="M30,583L-18,709L101,664Z" fill="#5c693f" stroke="#5c693f" fill-opacity="1" stroke-opacity="1"/><path d="M30,583L101,664L206,627Z" fill="#6b7b4f" stroke="#6b7b4f" fill-opacity="1" stroke-opacity="1"/><path d="M30,583L206,627L258,524Z" fill="#7a9163" stroke="#7a9163" fill-opacity="1" stroke-opacity="1"/><path d="M258,524L206,627L318,626Z" fill="#809d72" stroke="#809d72" fill-opacity="1" stroke-opacity="1"/><path d="M258,524L318,626L351,580Z" fill="#87ab82" stroke="#87ab82" fill-opacity="1" stroke-opacity="1"/><path d="M351,580L318,626L539,667Z" fill="#88a986" stroke="#88a986" fill-opacity="1" stroke-opacity="1"/><path d="M351,580L539,667L544,479Z" fill="#94c1a4" stroke="#94c1a4" fill-opacity="1" stroke-opacity="1"/><path d="M544,479L539,667L615,467Z" fill="#9fd4bf" stroke="#9fd4bf" fill-opacity="1" stroke-opacity="1"/><path d="M615,467L539,667L665,675Z" fill="#8abfae" stroke="#8abfae" fill-opacity="1" stroke-opacity="1"/><path d="M615,467L665,675L777,525Z" fill="#87cfc4" stroke="#87cfc4" fill-opacity="1" stroke-opacity="1"/><path d="M777,525L665,675L802,678Z" fill="#72b6ae" stroke="#72b6ae" fill-opacity="1" stroke-opacity="1"/><path d="M777,525L802,678L960,518Z" fill="#67bfb5" stroke="#67bfb5" fill-opacity="1" stroke-opacity="1"/><path d="M960,518L802,678L964,668Z" fill="#53aa9f" stroke="#53aa9f" fill-opacity="1" stroke-opacity="1"/><path d="M960,518L964,668L1122,546Z" fill="#44a89e" stroke="#44a89e" fill-opacity="1" stroke-opacity="1"/><path d="M1122,546L964,668L1131,734Z" fill="#2d887f" stroke="#2d887f" fill-opacity="1" stroke-opacity="1"/><path d="M1122,546L1131,734L1226,682Z" fill="#1f7a72" stroke="#1f7a72" fill-opacity="1" stroke-opacity="1"/><path d="M1122,546L1226,682L1276,547Z" fill="#22887f" stroke="#22887f" fill-opacity="1" stroke-opacity="1"/><path d="M1276,547L1226,682L1480,664Z" fill="#146b63" stroke="#146b63" fill-opacity="1" stroke-opacity="1"/><path d="M1276,547L1480,664L1380,485Z" fill="#1e7970" stroke="#1e7970" fill-opacity="1" stroke-opacity="1"/><path d="M1380,485L1480,664L1619,571Z" fill="#1d675e" stroke="#1d675e" fill-opacity="1" stroke-opacity="1"/><path d="M1619,571L1480,664L1568,694Z" fill="#12483f" stroke="#12483f" fill-opacity="1" stroke-opacity="1"/><path d="M-18,709L-81,774L71,850Z" fill="#453a13" stroke="#453a13" fill-opacity="1" stroke-opacity="1"/><path d="M-18,709L71,850L101,664Z" fill="#514e25" stroke="#514e25" fill-opacity="1" stroke-opacity="1"/><path d="M101,664L71,850L266,831Z" fill="#5b4e21" stroke="#5b4e21" fill-opacity="1" stroke-opacity="1"/><path d="M101,664L266,831L206,627Z" fill="#696c3e" stroke="#696c3e" fill-opacity="1" stroke-opacity="1"/><path d="M206,627L266,831L319,791Z" fill="#696b41" stroke="#696b41" fill-opacity="1" stroke-opacity="1"/><path d="M206,627L319,791L318,626Z" fill="#75855a" stroke="#75855a" fill-opacity="1" stroke-opacity="1"/><path d="M318,626L319,791L539,667Z" fill="#7c926e" stroke="#7c926e" fill-opacity="1" stroke-opacity="1"/><path d="M539,667L319,791L556,818Z" fill="#77866a" stroke="#77866a" fill-opacity="1" stroke-opacity="1"/><path d="M539,667L556,818L665,675Z" fill="#7b9a87" stroke="#7b9a87" fill-opacity="1" stroke-opacity="1"/><path d="M665,675L556,818L709,819Z" fill="#6e8a7d" stroke="#6e8a7d" fill-opacity="1" stroke-opacity="1"/><path d="M665,675L709,819L802,678Z" fill="#689992" stroke="#689992" fill-opacity="1" stroke-opacity="1"/><path d="M802,678L709,819L796,846Z" fill="#5a837c" stroke="#5a837c" fill-opacity="1" stroke-opacity="1"/><path d="M802,678L796,846L970,827Z" fill="#487b72" stroke="#487b72" fill-opacity="1" stroke-opacity="1"/><path d="M802,678L970,827L964,668Z" fill="#43887e" stroke="#43887e" fill-opacity="1" stroke-opacity="1"/><path d="M964,668L970,827L1131,734Z" fill="#297269" stroke="#297269" fill-opacity="1" stroke-opacity="1"/><path d="M1131,734L970,827L1157,839Z" fill="#19564f" stroke="#19564f" fill-opacity="1" stroke-opacity="1"/><path d="M1131,734L1157,839L1226,682Z" fill="#0f5a52" stroke="#0f5a52" fill-opacity="1" stroke-opacity="1"/><path d="M1226,682L1157,839L1293,824Z" fill="#054941" stroke="#054941" fill-opacity="1" stroke-opacity="1"/><path d="M1226,682L1293,824L1391,825Z" fill="#004038" stroke="#004038" fill-opacity="1" stroke-opacity="1"/><path d="M1226,682L1391,825L1480,664Z" fill="#064840" stroke="#064840" fill-opacity="1" stroke-opacity="1"/><path d="M1480,664L1391,825L1522,779Z" fill="#013028" stroke="#013028" fill-opacity="1" stroke-opacity="1"/><path d="M1480,664L1522,779L1568,694Z" fill="#08362e" stroke="#08362e" fill-opacity="1" stroke-opacity="1"/><path d="M71,850L796,846L266,831Z" fill="#716342" stroke="#716342" fill-opacity="1" stroke-opacity="1"/><path d="M266,831L796,846L556,818Z" fill="#7b7662" stroke="#7b7662" fill-opacity="1" stroke-opacity="1"/><path d="M266,831L556,818L319,791Z" fill="#716b46" stroke="#716b46" fill-opacity="1" stroke-opacity="1"/><path d="M556,818L796,846L709,819Z" fill="#687870" stroke="#687870" fill-opacity="1" stroke-opacity="1"/><path d="M796,846L1157,839L970,827Z" fill="#305b56" stroke="#305b56" fill-opacity="1" stroke-opacity="1"/><path d="M1157,839L1391,825L1293,824Z" fill="#00322c" stroke="#00322c" fill-opacity="1" stroke-opacity="1"/></g></svg>