<svg width="1436" height="783" xmlns="http://www.w3.org/2000/svg"><g><path d="M-101,-40L-102,963L-71,369Z" fill="#b0ebfc" stroke="#b0ebfc" fill-opacity="1" stroke-opacity="1"/><path d="M-101,-40L-71,369L-49,279Z" fill="#f2fff0" stroke="#f2fff0" fill-opacity="1" stroke-opacity="1"/><path d="M-101,-40L-49,279L-50,107Z" fill="#fdfff9" stroke="#fdfff9" fill-opacity="1" stroke-opacity="1"/><path d="M-101,-40L-50,107L53,-18Z" fill="#fefffa" stroke="#fefffa" fill-opacity="1" stroke-opacity="1"/><path d="M-101,-40L53,-18L226,-116Z" fill="#f7fcf4" stroke="#f7fcf4" fill-opacity="1" stroke-opacity="1"/><path d="M53,-18L-50,107L61,54Z" fill="#fafdf6" stroke="#fafdf6" fill-opacity="1" stroke-opacity="1"/><path d="M53,-18L61,54L215,28Z" fill="#f3fbf1" stroke="#f3fbf1" fill-opacity="1" stroke-opacity="1"/><path d="M53,-18L215,28L226,-116Z" fill="#eff9ed" stroke="#eff9ed" fill-opacity="1" stroke-opacity="1"/><path d="M226,-116L215,28L396,-48Z" fill="#e8f6e5" stroke="#e8f6e5" fill-opacity="1" stroke-opacity="1"/><path d="M226,-116L396,-48L514,-62Z" fill="#dff3df" stroke="#dff3df" fill-opacity="1" stroke-opacity="1"/><path d="M226,-116L514,-62L674,-64Z" fill="#d5efdb" stroke="#d5efdb" fill-opacity="1" stroke-opacity="1"/><path d="M226,-116L674,-64L1381,-133Z" fill="#acdce7" stroke="#acdce7" fill-opacity="1" stroke-opacity="1"/><path d="M396,-48L215,28L349,50Z" fill="#e6f5e2" stroke="#e6f5e2" fill-opacity="1" stroke-opacity="1"/><path d="M396,-48L349,50L498,40Z" fill="#dbf1dd" stroke="#dbf1dd" fill-opacity="1" stroke-opacity="1"/><path d="M396,-48L498,40L514,-62Z" fill="#d5efdb" stroke="#d5efdb" fill-opacity="1" stroke-opacity="1"/><path d="M514,-62L498,40L659,29Z" fill="#c9eade" stroke="#c9eade" fill-opacity="1" stroke-opacity="1"/><path d="M514,-62L659,29L674,-64Z" fill="#c0e7e1" stroke="#c0e7e1" fill-opacity="1" stroke-opacity="1"/><path d="M674,-64L659,29L840,-21Z" fill="#b1dfe6" stroke="#b1dfe6" fill-opacity="1" stroke-opacity="1"/><path d="M674,-64L840,-21L1024,-72Z" fill="#a1d3e6" stroke="#a1d3e6" fill-opacity="1" stroke-opacity="1"/><path d="M674,-64L1024,-72L1174,-92Z" fill="#95c6df" stroke="#95c6df" fill-opacity="1" stroke-opacity="1"/><path d="M674,-64L1174,-92L1381,-133Z" fill="#88b8d8" stroke="#88b8d8" fill-opacity="1" stroke-opacity="1"/><path d="M840,-21L659,29L864,132Z" fill="#a8dae9" stroke="#a8dae9" fill-opacity="1" stroke-opacity="1"/><path d="M840,-21L864,132L961,66Z" fill="#9dcee3" stroke="#9dcee3" fill-opacity="1" stroke-opacity="1"/><path d="M840,-21L961,66L1024,-72Z" fill="#97c8e0" stroke="#97c8e0" fill-opacity="1" stroke-opacity="1"/><path d="M1024,-72L961,66L1100,37Z" fill="#8dbedb" stroke="#8dbedb" fill-opacity="1" stroke-opacity="1"/><path d="M1024,-72L1100,37L1174,-92Z" fill="#86b6d7" stroke="#86b6d7" fill-opacity="1" stroke-opacity="1"/><path d="M1174,-92L1100,37L1260,24Z" fill="#84acce" stroke="#84acce" fill-opacity="1" stroke-opacity="1"/><path d="M1174,-92L1260,24L1274,-19Z" fill="#84a5c6" stroke="#84a5c6" fill-opacity="1" stroke-opacity="1"/><path d="M1174,-92L1274,-19L1381,-133Z" fill="#84a0c0" stroke="#84a0c0" fill-opacity="1" stroke-opacity="1"/><path d="M1274,-19L1260,24L1427,99Z" fill="#849aba" stroke="#849aba" fill-opacity="1" stroke-opacity="1"/><path d="M1274,-19L1427,99L1381,-133Z" fill="#8495b5" stroke="#8495b5" fill-opacity="1" stroke-opacity="1"/><path d="M1381,-133L1427,99L1597,-71Z" fill="#8488a6" stroke="#8488a6" fill-opacity="1" stroke-opacity="1"/><path d="M1597,-71L1427,99L1605,119Z" fill="#84809c" stroke="#84809c" fill-opacity="1" stroke-opacity="1"/><path d="M-50,107L-49,279L97,279Z" fill="#e9fee9" stroke="#e9fee9" fill-opacity="1" stroke-opacity="1"/><path d="M-50,107L97,279L61,54Z" fill="#f5fdee" stroke="#f5fdee" fill-opacity="1" stroke-opacity="1"/><path d="M61,54L97,279L210,231Z" fill="#e9fae4" stroke="#e9fae4" fill-opacity="1" stroke-opacity="1"/><path d="M61,54L210,231L215,28Z" fill="#eff9eb" stroke="#eff9eb" fill-opacity="1" stroke-opacity="1"/><path d="M215,28L210,231L349,50Z" fill="#e9f7e4" stroke="#e9f7e4" fill-opacity="1" stroke-opacity="1"/><path d="M349,50L210,231L391,274Z" fill="#ddf5d7" stroke="#ddf5d7" fill-opacity="1" stroke-opacity="1"/><path d="M349,50L391,274L498,40Z" fill="#d9f1da" stroke="#d9f1da" fill-opacity="1" stroke-opacity="1"/><path d="M498,40L391,274L558,230Z" fill="#cbeecf" stroke="#cbeecf" fill-opacity="1" stroke-opacity="1"/><path d="M498,40L558,230L659,29Z" fill="#c6e9dd" stroke="#c6e9dd" fill-opacity="1" stroke-opacity="1"/><path d="M659,29L558,230L714,214Z" fill="#b7e5da" stroke="#b7e5da" fill-opacity="1" stroke-opacity="1"/><path d="M659,29L714,214L864,132Z" fill="#acdde2" stroke="#acdde2" fill-opacity="1" stroke-opacity="1"/><path d="M864,132L714,214L799,215Z" fill="#9fdadd" stroke="#9fdadd" fill-opacity="1" stroke-opacity="1"/><path d="M864,132L799,215L918,203Z" fill="#97d2da" stroke="#97d2da" fill-opacity="1" stroke-opacity="1"/><path d="M864,132L918,203L961,66Z" fill="#97cbdc" stroke="#97cbdc" fill-opacity="1" stroke-opacity="1"/><path d="M961,66L918,203L1120,223Z" fill="#8bc1d3" stroke="#8bc1d3" fill-opacity="1" stroke-opacity="1"/><path d="M961,66L1120,223L1100,37Z" fill="#88bad6" stroke="#88bad6" fill-opacity="1" stroke-opacity="1"/><path d="M1100,37L1120,223L1260,24Z" fill="#83aecf" stroke="#83aecf" fill-opacity="1" stroke-opacity="1"/><path d="M1260,24L1120,223L1285,269Z" fill="#7ea7be" stroke="#7ea7be" fill-opacity="1" stroke-opacity="1"/><path d="M1260,24L1285,269L1427,99Z" fill="#819ab5" stroke="#819ab5" fill-opacity="1" stroke-opacity="1"/><path d="M1427,99L1285,269L1467,170Z" fill="#7c91a6" stroke="#7c91a6" fill-opacity="1" stroke-opacity="1"/><path d="M1427,99L1467,170L1605,119Z" fill="#81849d" stroke="#81849d" fill-opacity="1" stroke-opacity="1"/><path d="M1605,119L1467,170L1542,265Z" fill="#7b8092" stroke="#7b8092" fill-opacity="1" stroke-opacity="1"/><path d="M1605,119L1542,265L1599,344Z" fill="#6d8086" stroke="#6d8086" fill-opacity="1" stroke-opacity="1"/><path d="M1605,119L1599,344L1620,560Z" fill="#507a89" stroke="#507a89" fill-opacity="1" stroke-opacity="1"/><path d="M-49,279L-71,369L45,401Z" fill="#c7f8ef" stroke="#c7f8ef" fill-opacity="1" stroke-opacity="1"/><path d="M-49,279L45,401L97,279Z" fill="#ccf9e8" stroke="#ccf9e8" fill-opacity="1" stroke-opacity="1"/><path d="M97,279L45,401L256,398Z" fill="#b8f2e6" stroke="#b8f2e6" fill-opacity="1" stroke-opacity="1"/><path d="M97,279L256,398L210,231Z" fill="#c6f6dc" stroke="#c6f6dc" fill-opacity="1" stroke-opacity="1"/><path d="M210,231L256,398L333,317Z" fill="#bdf3d8" stroke="#bdf3d8" fill-opacity="1" stroke-opacity="1"/><path d="M210,231L333,317L391,274Z" fill="#c7f4d1" stroke="#c7f4d1" fill-opacity="1" stroke-opacity="1"/><path d="M391,274L333,317L530,328Z" fill="#b1eece" stroke="#b1eece" fill-opacity="1" stroke-opacity="1"/><path d="M391,274L530,328L558,230Z" fill="#b1ecc9" stroke="#b1ecc9" fill-opacity="1" stroke-opacity="1"/><path d="M558,230L530,328L683,370Z" fill="#9ae5d1" stroke="#9ae5d1" fill-opacity="1" stroke-opacity="1"/><path d="M558,230L683,370L714,214Z" fill="#9de4d0" stroke="#9de4d0" fill-opacity="1" stroke-opacity="1"/><path d="M714,214L683,370L799,215Z" fill="#93ded3" stroke="#93ded3" fill-opacity="1" stroke-opacity="1"/><path d="M799,215L683,370L815,416Z" fill="#7ad7dc" stroke="#7ad7dc" fill-opacity="1" stroke-opacity="1"/><path d="M799,215L815,416L921,337Z" fill="#73cfd9" stroke="#73cfd9" fill-opacity="1" stroke-opacity="1"/><path d="M799,215L921,337L918,203Z" fill="#85cfd1" stroke="#85cfd1" fill-opacity="1" stroke-opacity="1"/><path d="M918,203L921,337L1120,223Z" fill="#78c2ca" stroke="#78c2ca" fill-opacity="1" stroke-opacity="1"/><path d="M1120,223L921,337L1093,422Z" fill="#5cb7cd" stroke="#5cb7cd" fill-opacity="1" stroke-opacity="1"/><path d="M1120,223L1093,422L1271,350Z" fill="#53a9c4" stroke="#53a9c4" fill-opacity="1" stroke-opacity="1"/><path d="M1120,223L1271,350L1285,269Z" fill="#62a5b6" stroke="#62a5b6" fill-opacity="1" stroke-opacity="1"/><path d="M1285,269L1271,350L1376,390Z" fill="#5196b0" stroke="#5196b0" fill-opacity="1" stroke-opacity="1"/><path d="M1285,269L1376,390L1467,170Z" fill="#6492a1" stroke="#6492a1" fill-opacity="1" stroke-opacity="1"/><path d="M1467,170L1376,390L1542,265Z" fill="#648895" stroke="#648895" fill-opacity="1" stroke-opacity="1"/><path d="M1542,265L1376,390L1441,466Z" fill="#467fa0" stroke="#467fa0" fill-opacity="1" stroke-opacity="1"/><path d="M1542,265L1441,466L1599,344Z" fill="#4b7895" stroke="#4b7895" fill-opacity="1" stroke-opacity="1"/><path d="M-71,369L-102,963L-68,473Z" fill="#92c0e5" stroke="#92c0e5" fill-opacity="1" stroke-opacity="1"/><path d="M-71,369L-68,473L45,401Z" fill="#b3edf6" stroke="#b3edf6" fill-opacity="1" stroke-opacity="1"/><path d="M45,401L-68,473L52,536Z" fill="#a1dff1" stroke="#a1dff1" fill-opacity="1" stroke-opacity="1"/><path d="M45,401L52,536L256,524Z" fill="#95d8e7" stroke="#95d8e7" fill-opacity="1" stroke-opacity="1"/><path d="M45,401L256,524L256,398Z" fill="#9ce2e9" stroke="#9ce2e9" fill-opacity="1" stroke-opacity="1"/><path d="M256,398L256,524L324,563Z" fill="#89d1db" stroke="#89d1db" fill-opacity="1" stroke-opacity="1"/><path d="M256,398L324,563L333,317Z" fill="#99e2e1" stroke="#99e2e1" fill-opacity="1" stroke-opacity="1"/><path d="M333,317L324,563L506,513Z" fill="#86d5d9" stroke="#86d5d9" fill-opacity="1" stroke-opacity="1"/><path d="M333,317L506,513L530,328Z" fill="#94e3d5" stroke="#94e3d5" fill-opacity="1" stroke-opacity="1"/><path d="M530,328L506,513L683,370Z" fill="#7fdada" stroke="#7fdada" fill-opacity="1" stroke-opacity="1"/><path d="M683,370L506,513L709,537Z" fill="#64c7da" stroke="#64c7da" fill-opacity="1" stroke-opacity="1"/><path d="M683,370L709,537L774,519Z" fill="#57c0de" stroke="#57c0de" fill-opacity="1" stroke-opacity="1"/><path d="M683,370L774,519L815,416Z" fill="#5bc7e6" stroke="#5bc7e6" fill-opacity="1" stroke-opacity="1"/><path d="M815,416L774,519L987,537Z" fill="#42aedc" stroke="#42aedc" fill-opacity="1" stroke-opacity="1"/><path d="M815,416L987,537L921,337Z" fill="#4bb8e0" stroke="#4bb8e0" fill-opacity="1" stroke-opacity="1"/><path d="M921,337L987,537L1093,422Z" fill="#41acda" stroke="#41acda" fill-opacity="1" stroke-opacity="1"/><path d="M1093,422L987,537L1149,570Z" fill="#2590cc" stroke="#2590cc" fill-opacity="1" stroke-opacity="1"/><path d="M1093,422L1149,570L1261,561Z" fill="#1f82c1" stroke="#1f82c1" fill-opacity="1" stroke-opacity="1"/><path d="M1093,422L1261,561L1271,350Z" fill="#3091c6" stroke="#3091c6" fill-opacity="1" stroke-opacity="1"/><path d="M1271,350L1261,561L1376,390Z" fill="#3387bb" stroke="#3387bb" fill-opacity="1" stroke-opacity="1"/><path d="M1376,390L1261,561L1441,466Z" fill="#2a76ae" stroke="#2a76ae" fill-opacity="1" stroke-opacity="1"/><path d="M1599,344L1441,466L1620,560Z" fill="#2e6596" stroke="#2e6596" fill-opacity="1" stroke-opacity="1"/><path d="M-68,473L-102,963L-65,667Z" fill="#91a4c9" stroke="#91a4c9" fill-opacity="1" stroke-opacity="1"/><path d="M-68,473L-65,667L52,536Z" fill="#94cae7" stroke="#94cae7" fill-opacity="1" stroke-opacity="1"/><path d="M52,536L-65,667L45,646Z" fill="#8cbadc" stroke="#8cbadc" fill-opacity="1" stroke-opacity="1"/><path d="M52,536L45,646L256,524Z" fill="#88c3dc" stroke="#88c3dc" fill-opacity="1" stroke-opacity="1"/><path d="M256,524L45,646L248,717Z" fill="#80b2cd" stroke="#80b2cd" fill-opacity="1" stroke-opacity="1"/><path d="M256,524L248,717L324,563Z" fill="#7bb7cd" stroke="#7bb7cd" fill-opacity="1" stroke-opacity="1"/><path d="M324,563L248,717L393,632Z" fill="#77acc1" stroke="#77acc1" fill-opacity="1" stroke-opacity="1"/><path d="M324,563L393,632L506,513Z" fill="#71baca" stroke="#71baca" fill-opacity="1" stroke-opacity="1"/><path d="M506,513L393,632L506,680Z" fill="#67adc2" stroke="#67adc2" fill-opacity="1" stroke-opacity="1"/><path d="M506,513L506,680L709,537Z" fill="#5bb0ca" stroke="#5bb0ca" fill-opacity="1" stroke-opacity="1"/><path d="M709,537L506,680L725,686Z" fill="#4e9dc2" stroke="#4e9dc2" fill-opacity="1" stroke-opacity="1"/><path d="M709,537L725,686L774,519Z" fill="#44a4d1" stroke="#44a4d1" fill-opacity="1" stroke-opacity="1"/><path d="M774,519L725,686L800,730Z" fill="#3d90c4" stroke="#3d90c4" fill-opacity="1" stroke-opacity="1"/><path d="M774,519L800,730L992,669Z" fill="#3288c3" stroke="#3288c3" fill-opacity="1" stroke-opacity="1"/><path d="M774,519L992,669L987,537Z" fill="#2f92cd" stroke="#2f92cd" fill-opacity="1" stroke-opacity="1"/><path d="M987,537L992,669L1149,570Z" fill="#1f7fc3" stroke="#1f7fc3" fill-opacity="1" stroke-opacity="1"/><path d="M1149,570L992,669L1116,694Z" fill="#196cb4" stroke="#196cb4" fill-opacity="1" stroke-opacity="1"/><path d="M1149,570L1116,694L1261,561Z" fill="#166bb5" stroke="#166bb5" fill-opacity="1" stroke-opacity="1"/><path d="M1261,561L1116,694L1320,723Z" fill="#16569e" stroke="#16569e" fill-opacity="1" stroke-opacity="1"/><path d="M1261,561L1320,723L1483,644Z" fill="#164b93" stroke="#164b93" fill-opacity="1" stroke-opacity="1"/><path d="M1261,561L1483,644L1441,466Z" fill="#1b5c9e" stroke="#1b5c9e" fill-opacity="1" stroke-opacity="1"/><path d="M1441,466L1483,644L1620,560Z" fill="#1b4d8e" stroke="#1b4d8e" fill-opacity="1" stroke-opacity="1"/><path d="M1620,560L1483,644L1529,698Z" fill="#16377c" stroke="#16377c" fill-opacity="1" stroke-opacity="1"/><path d="M1620,560L1529,698L1619,993Z" fill="#161754" stroke="#161754" fill-opacity="1" stroke-opacity="1"/><path d="M-65,667L-102,963L-29,812Z" fill="#9185a7" stroke="#9185a7" fill-opacity="1" stroke-opacity="1"/><path d="M-65,667L-29,812L45,646Z" fill="#8ea1c3" stroke="#8ea1c3" fill-opacity="1" stroke-opacity="1"/><path d="M45,646L-29,812L50,840Z" fill="#8c90af" stroke="#8c90af" fill-opacity="1" stroke-opacity="1"/><path d="M45,646L50,840L248,717Z" fill="#8597b3" stroke="#8597b3" fill-opacity="1" stroke-opacity="1"/><path d="M248,717L50,840L234,855Z" fill="#81819a" stroke="#81819a" fill-opacity="1" stroke-opacity="1"/><path d="M248,717L234,855L360,811Z" fill="#7a8295" stroke="#7a8295" fill-opacity="1" stroke-opacity="1"/><path d="M248,717L360,811L393,632Z" fill="#7695a8" stroke="#7695a8" fill-opacity="1" stroke-opacity="1"/><path d="M393,632L360,811L469,802Z" fill="#6e899c" stroke="#6e899c" fill-opacity="1" stroke-opacity="1"/><path d="M393,632L469,802L506,680Z" fill="#6893a6" stroke="#6893a6" fill-opacity="1" stroke-opacity="1"/><path d="M506,680L469,802L670,792Z" fill="#5c8099" stroke="#5c8099" fill-opacity="1" stroke-opacity="1"/><path d="M506,680L670,792L725,686Z" fill="#5086a8" stroke="#5086a8" fill-opacity="1" stroke-opacity="1"/><path d="M725,686L670,792L800,730Z" fill="#427aa8" stroke="#427aa8" fill-opacity="1" stroke-opacity="1"/><path d="M800,730L670,792L832,862Z" fill="#3d6798" stroke="#3d6798" fill-opacity="1" stroke-opacity="1"/><path d="M800,730L832,862L1029,782Z" fill="#2f5a95" stroke="#2f5a95" fill-opacity="1" stroke-opacity="1"/><path d="M800,730L1029,782L992,669Z" fill="#2966a4" stroke="#2966a4" fill-opacity="1" stroke-opacity="1"/><path d="M992,669L1029,782L1116,694Z" fill="#1e5da2" stroke="#1e5da2" fill-opacity="1" stroke-opacity="1"/><path d="M1116,694L1029,782L1151,871Z" fill="#18448b" stroke="#18448b" fill-opacity="1" stroke-opacity="1"/><path d="M1116,694L1151,871L1296,834Z" fill="#16357b" stroke="#16357b" fill-opacity="1" stroke-opacity="1"/><path d="M1116,694L1296,834L1320,723Z" fill="#163b82" stroke="#163b82" fill-opacity="1" stroke-opacity="1"/><path d="M1320,723L1296,834L1373,820Z" fill="#16256b" stroke="#16256b" fill-opacity="1" stroke-opacity="1"/><path d="M1320,723L1373,820L1483,644Z" fill="#162f75" stroke="#162f75" fill-opacity="1" stroke-opacity="1"/><path d="M1483,644L1373,820L1529,698Z" fill="#16286e" stroke="#16286e" fill-opacity="1" stroke-opacity="1"/><path d="M1529,698L1373,820L1529,859Z" fill="#161357" stroke="#161357" fill-opacity="1" stroke-opacity="1"/><path d="M1529,698L1529,859L1619,993Z" fill="#16003b" stroke="#16003b" fill-opacity="1" stroke-opacity="1"/><path d="M-29,812L-102,963L50,840Z" fill="#8f7f94" stroke="#8f7f94" fill-opacity="1" stroke-opacity="1"/><path d="M50,840L-102,963L79,991Z" fill="#8d7e80" stroke="#8d7e80" fill-opacity="1" stroke-opacity="1"/><path d="M50,840L79,991L227,930Z" fill="#857b7b" stroke="#857b7b" fill-opacity="1" stroke-opacity="1"/><path d="M50,840L227,930L234,855Z" fill="#817986" stroke="#817986" fill-opacity="1" stroke-opacity="1"/><path d="M234,855L227,930L360,811Z" fill="#7b7781" stroke="#7b7781" fill-opacity="1" stroke-opacity="1"/><path d="M360,811L227,930L364,1003Z" fill="#787670" stroke="#787670" fill-opacity="1" stroke-opacity="1"/><path d="M360,811L364,1003L479,991Z" fill="#6f7266" stroke="#6f7266" fill-opacity="1" stroke-opacity="1"/><path d="M360,811L479,991L469,802Z" fill="#6b7177" stroke="#6b7177" fill-opacity="1" stroke-opacity="1"/><path d="M469,802L479,991L623,967Z" fill="#5f6c68" stroke="#5f6c68" fill-opacity="1" stroke-opacity="1"/><path d="M469,802L623,967L670,792Z" fill="#56697f" stroke="#56697f" fill-opacity="1" stroke-opacity="1"/><path d="M670,792L623,967L832,862Z" fill="#45617f" stroke="#45617f" fill-opacity="1" stroke-opacity="1"/><path d="M832,862L623,967L873,932Z" fill="#3c5b74" stroke="#3c5b74" fill-opacity="1" stroke-opacity="1"/><path d="M832,862L873,932L1029,782Z" fill="#2c4c80" stroke="#2c4c80" fill-opacity="1" stroke-opacity="1"/><path d="M1029,782L873,932L1011,1023Z" fill="#26456c" stroke="#26456c" fill-opacity="1" stroke-opacity="1"/><path d="M1029,782L1011,1023L1151,871Z" fill="#1c3a6d" stroke="#1c3a6d" fill-opacity="1" stroke-opacity="1"/><path d="M1151,871L1011,1023L1139,1017Z" fill="#183657" stroke="#183657" fill-opacity="1" stroke-opacity="1"/><path d="M1151,871L1139,1017L1288,1025Z" fill="#162b4c" stroke="#162b4c" fill-opacity="1" stroke-opacity="1"/><path d="M1151,871L1288,1025L1296,834Z" fill="#162453" stroke="#162453" fill-opacity="1" stroke-opacity="1"/><path d="M1296,834L1288,1025L1382,947Z" fill="#161b42" stroke="#161b42" fill-opacity="1" stroke-opacity="1"/><path d="M1296,834L1382,947L1373,820Z" fill="#161752" stroke="#161752" fill-opacity="1" stroke-opacity="1"/><path d="M1373,820L1382,947L1529,859Z" fill="#160d45" stroke="#160d45" fill-opacity="1" stroke-opacity="1"/><path d="M1529,859L1382,947L1619,993Z" fill="#160329" stroke="#160329" fill-opacity="1" stroke-opacity="1"/><path d="M79,991L364,1003L227,930Z" fill="#7e7869" stroke="#7e7869" fill-opacity="1" stroke-opacity="1"/><path d="M364,1003L1011,1023L479,991Z" fill="#526761" stroke="#526761" fill-opacity="1" stroke-opacity="1"/><path d="M479,991L1011,1023L623,967Z" fill="#466165" stroke="#466165" fill-opacity="1" stroke-opacity="1"/><path d="M623,967L1011,1023L873,932Z" fill="#355567" stroke="#355567" fill-opacity="1" stroke-opacity="1"/><path d="M1011,1023L1288,1025L1139,1017Z" fill="#163152" stroke="#163152" fill-opacity="1" stroke-opacity="1"/><path d="M1288,1025L1619,993L1382,947Z" fill="#160d2c" stroke="#160d2c" fill-opacity="1" stroke-opacity="1"/></g></svg>