<svg width="1436" height="739" xmlns="http://www.w3.org/2000/svg"><g><path d="M-89,-66L-94,187L-81,46Z" fill="#c82d34" stroke="#c82d34" fill-opacity="1" stroke-opacity="1"/><path d="M-89,-66L-81,46L47,50Z" fill="#c1192d" stroke="#c1192d" fill-opacity="1" stroke-opacity="1"/><path d="M-89,-66L47,50L127,-65Z" fill="#bf172c" stroke="#bf172c" fill-opacity="1" stroke-opacity="1"/><path d="M-89,-66L127,-65L175,-102Z" fill="#b71c23" stroke="#b71c23" fill-opacity="1" stroke-opacity="1"/><path d="M127,-65L47,50L224,110Z" fill="#db4b45" stroke="#db4b45" fill-opacity="1" stroke-opacity="1"/><path d="M127,-65L224,110L175,-102Z" fill="#d23c3e" stroke="#d23c3e" fill-opacity="1" stroke-opacity="1"/><path d="M175,-102L224,110L379,16Z" fill="#e15b53" stroke="#e15b53" fill-opacity="1" stroke-opacity="1"/><path d="M175,-102L379,16L431,-64Z" fill="#d85450" stroke="#d85450" fill-opacity="1" stroke-opacity="1"/><path d="M175,-102L431,-64L961,-117Z" fill="#cf726c" stroke="#cf726c" fill-opacity="1" stroke-opacity="1"/><path d="M175,-102L961,-117L1145,-132Z" fill="#b97579" stroke="#b97579" fill-opacity="1" stroke-opacity="1"/><path d="M431,-64L379,16L561,-39Z" fill="#e16e72" stroke="#e16e72" fill-opacity="1" stroke-opacity="1"/><path d="M431,-64L561,-39L796,-58Z" fill="#d97881" stroke="#d97881" fill-opacity="1" stroke-opacity="1"/><path d="M431,-64L796,-58L961,-117Z" fill="#c6777f" stroke="#c6777f" fill-opacity="1" stroke-opacity="1"/><path d="M561,-39L379,16L577,127Z" fill="#f1928a" stroke="#f1928a" fill-opacity="1" stroke-opacity="1"/><path d="M561,-39L577,127L640,-25Z" fill="#ec9393" stroke="#ec9393" fill-opacity="1" stroke-opacity="1"/><path d="M561,-39L640,-25L796,-58Z" fill="#d87a8b" stroke="#d87a8b" fill-opacity="1" stroke-opacity="1"/><path d="M640,-25L577,127L716,53Z" fill="#f3a6a2" stroke="#f3a6a2" fill-opacity="1" stroke-opacity="1"/><path d="M640,-25L716,53L796,-58Z" fill="#da8491" stroke="#da8491" fill-opacity="1" stroke-opacity="1"/><path d="M796,-58L716,53L798,87Z" fill="#dd9399" stroke="#dd9399" fill-opacity="1" stroke-opacity="1"/><path d="M796,-58L798,87L915,29Z" fill="#d08a95" stroke="#d08a95" fill-opacity="1" stroke-opacity="1"/><path d="M796,-58L915,29L961,-117Z" fill="#b46981" stroke="#b46981" fill-opacity="1" stroke-opacity="1"/><path d="M961,-117L915,29L1167,79Z" fill="#a46a83" stroke="#a46a83" fill-opacity="1" stroke-opacity="1"/><path d="M961,-117L1167,79L1145,-132Z" fill="#834e6f" stroke="#834e6f" fill-opacity="1" stroke-opacity="1"/><path d="M1145,-132L1167,79L1245,25Z" fill="#824d74" stroke="#824d74" fill-opacity="1" stroke-opacity="1"/><path d="M1145,-132L1245,25L1297,-116Z" fill="#6c3a61" stroke="#6c3a61" fill-opacity="1" stroke-opacity="1"/><path d="M1145,-132L1297,-116L1581,-104Z" fill="#552a52" stroke="#552a52" fill-opacity="1" stroke-opacity="1"/><path d="M1297,-116L1245,25L1481,-84Z" fill="#642a5d" stroke="#642a5d" fill-opacity="1" stroke-opacity="1"/><path d="M1297,-116L1481,-84L1581,-104Z" fill="#501a4a" stroke="#501a4a" fill-opacity="1" stroke-opacity="1"/><path d="M1481,-84L1245,25L1422,115Z" fill="#743f6d" stroke="#743f6d" fill-opacity="1" stroke-opacity="1"/><path d="M1481,-84L1422,115L1566,42Z" fill="#713266" stroke="#713266" fill-opacity="1" stroke-opacity="1"/><path d="M1481,-84L1566,42L1581,-104Z" fill="#5e0e51" stroke="#5e0e51" fill-opacity="1" stroke-opacity="1"/><path d="M1581,-104L1566,42L1612,337Z" fill="#804671" stroke="#804671" fill-opacity="1" stroke-opacity="1"/><path d="M-81,46L-94,187L47,50Z" fill="#d44244" stroke="#d44244" fill-opacity="1" stroke-opacity="1"/><path d="M47,50L-94,187L69,167Z" fill="#da6159" stroke="#da6159" fill-opacity="1" stroke-opacity="1"/><path d="M47,50L69,167L224,110Z" fill="#e66c5a" stroke="#e66c5a" fill-opacity="1" stroke-opacity="1"/><path d="M224,110L69,167L227,249Z" fill="#ec9a7c" stroke="#ec9a7c" fill-opacity="1" stroke-opacity="1"/><path d="M224,110L227,249L346,225Z" fill="#f5b595" stroke="#f5b595" fill-opacity="1" stroke-opacity="1"/><path d="M224,110L346,225L379,16Z" fill="#f99d7c" stroke="#f99d7c" fill-opacity="1" stroke-opacity="1"/><path d="M379,16L346,225L469,254Z" fill="#fcc3a0" stroke="#fcc3a0" fill-opacity="1" stroke-opacity="1"/><path d="M379,16L469,254L577,127Z" fill="#fec0a4" stroke="#fec0a4" fill-opacity="1" stroke-opacity="1"/><path d="M577,127L469,254L657,283Z" fill="#fdecdb" stroke="#fdecdb" fill-opacity="1" stroke-opacity="1"/><path d="M577,127L657,283L805,171Z" fill="#f6e6d7" stroke="#f6e6d7" fill-opacity="1" stroke-opacity="1"/><path d="M577,127L805,171L716,53Z" fill="#f4c3b6" stroke="#f4c3b6" fill-opacity="1" stroke-opacity="1"/><path d="M716,53L805,171L798,87Z" fill="#ebb8af" stroke="#ebb8af" fill-opacity="1" stroke-opacity="1"/><path d="M798,87L805,171L917,199Z" fill="#e0cbbf" stroke="#e0cbbf" fill-opacity="1" stroke-opacity="1"/><path d="M798,87L917,199L915,29Z" fill="#d9afab" stroke="#d9afab" fill-opacity="1" stroke-opacity="1"/><path d="M915,29L917,199L1167,79Z" fill="#be9fa2" stroke="#be9fa2" fill-opacity="1" stroke-opacity="1"/><path d="M1167,79L917,199L1134,234Z" fill="#acb6b6" stroke="#acb6b6" fill-opacity="1" stroke-opacity="1"/><path d="M1167,79L1134,234L1270,223Z" fill="#99a7b1" stroke="#99a7b1" fill-opacity="1" stroke-opacity="1"/><path d="M1167,79L1270,223L1245,25Z" fill="#958192" stroke="#958192" fill-opacity="1" stroke-opacity="1"/><path d="M1245,25L1270,223L1422,115Z" fill="#8c7b91" stroke="#8c7b91" fill-opacity="1" stroke-opacity="1"/><path d="M1422,115L1270,223L1426,276Z" fill="#8697b1" stroke="#8697b1" fill-opacity="1" stroke-opacity="1"/><path d="M1422,115L1426,276L1538,234Z" fill="#808bac" stroke="#808bac" fill-opacity="1" stroke-opacity="1"/><path d="M1422,115L1538,234L1566,42Z" fill="#806486" stroke="#806486" fill-opacity="1" stroke-opacity="1"/><path d="M1566,42L1538,234L1612,337Z" fill="#807aa2" stroke="#807aa2" fill-opacity="1" stroke-opacity="1"/><path d="M-94,187L-86,474L-42,389Z" fill="#cf808d" stroke="#cf808d" fill-opacity="1" stroke-opacity="1"/><path d="M-94,187L-42,389L27,385Z" fill="#d58490" stroke="#d58490" fill-opacity="1" stroke-opacity="1"/><path d="M-94,187L27,385L69,167Z" fill="#d98c8c" stroke="#d98c8c" fill-opacity="1" stroke-opacity="1"/><path d="M69,167L27,385L227,249Z" fill="#e5a49a" stroke="#e5a49a" fill-opacity="1" stroke-opacity="1"/><path d="M227,249L27,385L234,480Z" fill="#eab0a7" stroke="#eab0a7" fill-opacity="1" stroke-opacity="1"/><path d="M227,249L234,480L281,435Z" fill="#f1c3b5" stroke="#f1c3b5" fill-opacity="1" stroke-opacity="1"/><path d="M227,249L281,435L316,328Z" fill="#f5c9b9" stroke="#f5c9b9" fill-opacity="1" stroke-opacity="1"/><path d="M227,249L316,328L346,225Z" fill="#f8cdb6" stroke="#f8cdb6" fill-opacity="1" stroke-opacity="1"/><path d="M346,225L316,328L469,254Z" fill="#fbdcc7" stroke="#fbdcc7" fill-opacity="1" stroke-opacity="1"/><path d="M469,254L316,328L555,407Z" fill="#fde8dc" stroke="#fde8dc" fill-opacity="1" stroke-opacity="1"/><path d="M469,254L555,407L657,283Z" fill="#fdf4ee" stroke="#fdf4ee" fill-opacity="1" stroke-opacity="1"/><path d="M657,283L555,407L718,427Z" fill="#f9fbfb" stroke="#f9fbfb" fill-opacity="1" stroke-opacity="1"/><path d="M657,283L718,427L774,336Z" fill="#f1f7fa" stroke="#f1f7fa" fill-opacity="1" stroke-opacity="1"/><path d="M657,283L774,336L805,171Z" fill="#eef5f2" stroke="#eef5f2" fill-opacity="1" stroke-opacity="1"/><path d="M805,171L774,336L917,199Z" fill="#e1ebe7" stroke="#e1ebe7" fill-opacity="1" stroke-opacity="1"/><path d="M917,199L774,336L960,373Z" fill="#d7eaf0" stroke="#d7eaf0" fill-opacity="1" stroke-opacity="1"/><path d="M917,199L960,373L1134,234Z" fill="#bddbe4" stroke="#bddbe4" fill-opacity="1" stroke-opacity="1"/><path d="M1134,234L960,373L1114,397Z" fill="#add1e5" stroke="#add1e5" fill-opacity="1" stroke-opacity="1"/><path d="M1134,234L1114,397L1270,223Z" fill="#9bc1d8" stroke="#9bc1d8" fill-opacity="1" stroke-opacity="1"/><path d="M1270,223L1114,397L1293,423Z" fill="#95bad9" stroke="#95bad9" fill-opacity="1" stroke-opacity="1"/><path d="M1270,223L1293,423L1426,276Z" fill="#8babcf" stroke="#8babcf" fill-opacity="1" stroke-opacity="1"/><path d="M1426,276L1293,423L1459,345Z" fill="#83a2cd" stroke="#83a2cd" fill-opacity="1" stroke-opacity="1"/><path d="M1426,276L1459,345L1538,234Z" fill="#8097c2" stroke="#8097c2" fill-opacity="1" stroke-opacity="1"/><path d="M1538,234L1459,345L1612,337Z" fill="#808ec1" stroke="#808ec1" fill-opacity="1" stroke-opacity="1"/><path d="M-42,389L-86,474L66,510Z" fill="#be8293" stroke="#be8293" fill-opacity="1" stroke-opacity="1"/><path d="M-42,389L66,510L27,385Z" fill="#d08e97" stroke="#d08e97" fill-opacity="1" stroke-opacity="1"/><path d="M27,385L66,510L234,480Z" fill="#cc9ea1" stroke="#cc9ea1" fill-opacity="1" stroke-opacity="1"/><path d="M281,435L234,480L358,555Z" fill="#d0c3bc" stroke="#d0c3bc" fill-opacity="1" stroke-opacity="1"/><path d="M281,435L358,555L555,407Z" fill="#e0d9d2" stroke="#e0d9d2" fill-opacity="1" stroke-opacity="1"/><path d="M281,435L555,407L316,328Z" fill="#faddcf" stroke="#faddcf" fill-opacity="1" stroke-opacity="1"/><path d="M555,407L358,555L541,578Z" fill="#cadce1" stroke="#cadce1" fill-opacity="1" stroke-opacity="1"/><path d="M555,407L541,578L699,571Z" fill="#c5e4f2" stroke="#c5e4f2" fill-opacity="1" stroke-opacity="1"/><path d="M555,407L699,571L718,427Z" fill="#dbf3fb" stroke="#dbf3fb" fill-opacity="1" stroke-opacity="1"/><path d="M718,427L699,571L827,555Z" fill="#b7e2f5" stroke="#b7e2f5" fill-opacity="1" stroke-opacity="1"/><path d="M718,427L827,555L774,336Z" fill="#dbf0f8" stroke="#dbf0f8" fill-opacity="1" stroke-opacity="1"/><path d="M774,336L827,555L960,373Z" fill="#d5ebf5" stroke="#d5ebf5" fill-opacity="1" stroke-opacity="1"/><path d="M960,373L827,555L974,503Z" fill="#afdef1" stroke="#afdef1" fill-opacity="1" stroke-opacity="1"/><path d="M960,373L974,503L1114,465Z" fill="#a7d5ea" stroke="#a7d5ea" fill-opacity="1" stroke-opacity="1"/><path d="M960,373L1114,465L1114,397Z" fill="#abd2e6" stroke="#abd2e6" fill-opacity="1" stroke-opacity="1"/><path d="M1114,397L1114,465L1232,485Z" fill="#89c0df" stroke="#89c0df" fill-opacity="1" stroke-opacity="1"/><path d="M1114,397L1232,485L1293,423Z" fill="#89b9da" stroke="#89b9da" fill-opacity="1" stroke-opacity="1"/><path d="M1293,423L1232,485L1430,537Z" fill="#68a4d3" stroke="#68a4d3" fill-opacity="1" stroke-opacity="1"/><path d="M1293,423L1430,537L1459,345Z" fill="#769fcd" stroke="#769fcd" fill-opacity="1" stroke-opacity="1"/><path d="M1459,345L1430,537L1620,504Z" fill="#658cc5" stroke="#658cc5" fill-opacity="1" stroke-opacity="1"/><path d="M1459,345L1620,504L1612,337Z" fill="#7d8ac1" stroke="#7d8ac1" fill-opacity="1" stroke-opacity="1"/><path d="M-86,474L-76,793L-31,680Z" fill="#673f77" stroke="#673f77" fill-opacity="1" stroke-opacity="1"/><path d="M-86,474L-31,680L66,510Z" fill="#8b678b" stroke="#8b678b" fill-opacity="1" stroke-opacity="1"/><path d="M66,510L-31,680L66,705Z" fill="#775984" stroke="#775984" fill-opacity="1" stroke-opacity="1"/><path d="M66,510L66,705L233,629Z" fill="#857290" stroke="#857290" fill-opacity="1" stroke-opacity="1"/><path d="M66,510L233,629L234,480Z" fill="#a999a3" stroke="#a999a3" fill-opacity="1" stroke-opacity="1"/><path d="M234,480L233,629L358,555Z" fill="#aaa8b1" stroke="#aaa8b1" fill-opacity="1" stroke-opacity="1"/><path d="M358,555L233,629L374,716Z" fill="#9497ac" stroke="#9497ac" fill-opacity="1" stroke-opacity="1"/><path d="M358,555L374,716L486,696Z" fill="#919ebb" stroke="#919ebb" fill-opacity="1" stroke-opacity="1"/><path d="M358,555L486,696L541,578Z" fill="#9eb7cf" stroke="#9eb7cf" fill-opacity="1" stroke-opacity="1"/><path d="M541,578L486,696L670,728Z" fill="#8eaed5" stroke="#8eaed5" fill-opacity="1" stroke-opacity="1"/><path d="M541,578L670,728L699,571Z" fill="#97c3e8" stroke="#97c3e8" fill-opacity="1" stroke-opacity="1"/><path d="M699,571L670,728L824,637Z" fill="#87b7e2" stroke="#87b7e2" fill-opacity="1" stroke-opacity="1"/><path d="M699,571L824,637L827,555Z" fill="#8fc7eb" stroke="#8fc7eb" fill-opacity="1" stroke-opacity="1"/><path d="M827,555L824,637L974,503Z" fill="#87c6ea" stroke="#87c6ea" fill-opacity="1" stroke-opacity="1"/><path d="M974,503L824,637L930,712Z" fill="#70b1df" stroke="#70b1df" fill-opacity="1" stroke-opacity="1"/><path d="M974,503L930,712L1138,720Z" fill="#529ad3" stroke="#529ad3" fill-opacity="1" stroke-opacity="1"/><path d="M974,503L1138,720L1114,465Z" fill="#5bacdb" stroke="#5bacdb" fill-opacity="1" stroke-opacity="1"/><path d="M1114,465L1138,720L1232,485Z" fill="#50a1d6" stroke="#50a1d6" fill-opacity="1" stroke-opacity="1"/><path d="M1232,485L1138,720L1292,642Z" fill="#3585c8" stroke="#3585c8" fill-opacity="1" stroke-opacity="1"/><path d="M1232,485L1292,642L1430,537Z" fill="#408cca" stroke="#408cca" fill-opacity="1" stroke-opacity="1"/><path d="M1430,537L1292,642L1422,704Z" fill="#216aba" stroke="#216aba" fill-opacity="1" stroke-opacity="1"/><path d="M1430,537L1422,704L1515,693Z" fill="#175ab2" stroke="#175ab2" fill-opacity="1" stroke-opacity="1"/><path d="M1430,537L1515,693L1620,504Z" fill="#2767b9" stroke="#2767b9" fill-opacity="1" stroke-opacity="1"/><path d="M1620,504L1515,693L1592,845Z" fill="#0e3ea3" stroke="#0e3ea3" fill-opacity="1" stroke-opacity="1"/><path d="M-31,680L-76,793L66,705Z" fill="#5a2f6f" stroke="#5a2f6f" fill-opacity="1" stroke-opacity="1"/><path d="M66,705L-76,793L74,805Z" fill="#5c296c" stroke="#5c296c" fill-opacity="1" stroke-opacity="1"/><path d="M66,705L74,805L233,629Z" fill="#6d5280" stroke="#6d5280" fill-opacity="1" stroke-opacity="1"/><path d="M233,629L74,805L166,871Z" fill="#6b487a" stroke="#6b487a" fill-opacity="1" stroke-opacity="1"/><path d="M233,629L166,871L374,716Z" fill="#746790" stroke="#746790" fill-opacity="1" stroke-opacity="1"/><path d="M374,716L166,871L400,884Z" fill="#7a578a" stroke="#7a578a" fill-opacity="1" stroke-opacity="1"/><path d="M374,716L400,884L486,696Z" fill="#7d7dab" stroke="#7d7dab" fill-opacity="1" stroke-opacity="1"/><path d="M486,696L400,884L561,847Z" fill="#7f79b1" stroke="#7f79b1" fill-opacity="1" stroke-opacity="1"/><path d="M486,696L561,847L670,728Z" fill="#7d91c7" stroke="#7d91c7" fill-opacity="1" stroke-opacity="1"/><path d="M670,728L561,847L724,834Z" fill="#7a87c9" stroke="#7a87c9" fill-opacity="1" stroke-opacity="1"/><path d="M670,728L724,834L837,800Z" fill="#6f87ca" stroke="#6f87ca" fill-opacity="1" stroke-opacity="1"/><path d="M670,728L837,800L824,637Z" fill="#6f9bd4" stroke="#6f9bd4" fill-opacity="1" stroke-opacity="1"/><path d="M824,637L837,800L930,712Z" fill="#6095d1" stroke="#6095d1" fill-opacity="1" stroke-opacity="1"/><path d="M930,712L837,800L1005,850Z" fill="#5078c2" stroke="#5078c2" fill-opacity="1" stroke-opacity="1"/><path d="M930,712L1005,850L1138,720Z" fill="#3973bf" stroke="#3973bf" fill-opacity="1" stroke-opacity="1"/><path d="M1138,720L1005,850L1135,881Z" fill="#2856af" stroke="#2856af" fill-opacity="1" stroke-opacity="1"/><path d="M1138,720L1135,881L1232,851Z" fill="#1c4aa9" stroke="#1c4aa9" fill-opacity="1" stroke-opacity="1"/><path d="M1138,720L1232,851L1292,642Z" fill="#175db3" stroke="#175db3" fill-opacity="1" stroke-opacity="1"/><path d="M1292,642L1232,851L1422,704Z" fill="#0d51ad" stroke="#0d51ad" fill-opacity="1" stroke-opacity="1"/><path d="M1422,704L1232,851L1436,790Z" fill="#073aa1" stroke="#073aa1" fill-opacity="1" stroke-opacity="1"/><path d="M1422,704L1436,790L1515,693Z" fill="#023fa3" stroke="#023fa3" fill-opacity="1" stroke-opacity="1"/><path d="M1515,693L1436,790L1592,845Z" fill="#002797" stroke="#002797" fill-opacity="1" stroke-opacity="1"/><path d="M-76,793L166,871L74,805Z" fill="#5f1f66" stroke="#5f1f66" fill-opacity="1" stroke-opacity="1"/><path d="M400,884L1135,881L724,834Z" fill="#6e75bc" stroke="#6e75bc" fill-opacity="1" stroke-opacity="1"/><path d="M400,884L724,834L561,847Z" fill="#7d75b5" stroke="#7d75b5" fill-opacity="1" stroke-opacity="1"/><path d="M724,834L1135,881L1005,850Z" fill="#4a63b4" stroke="#4a63b4" fill-opacity="1" stroke-opacity="1"/><path d="M724,834L1005,850L837,800Z" fill="#5d71bf" stroke="#5d71bf" fill-opacity="1" stroke-opacity="1"/><path d="M1135,881L1592,845L1232,851Z" fill="#0c2d97" stroke="#0c2d97" fill-opacity="1" stroke-opacity="1"/><path d="M1232,851L1592,845L1436,790Z" fill="#012395" stroke="#012395" fill-opacity="1" stroke-opacity="1"/></g></svg>